<svg xmlns="http://www.w3.org/2000/svg" viewBox="0 0 128.11 28.91"><defs><style>.cls-1{fill:#26c4f3;}.cls-2{fill:#294c79;}.cls-3{fill:none;stroke:#294c79;stroke-miterlimit:10;stroke-width:0.25px;}</style></defs><title>Asset 1</title><g id="Layer_2" data-name="Layer 2"><g id="Layer_1-2" data-name="Layer 1"><path class="cls-1" d="M4.62,13.78A13.88,13.88,0,0,1,16.1.12H0V27.44H16.1A13.86,13.86,0,0,1,4.62,13.78Z"/><path class="cls-1" d="M33.55,13.78h0c0-.12,0-.25,0-.37L45.25.12H33.89L27.53,7.35l-1.79,2H19.89a4.4,4.4,0,0,0-4.41,4.41h0a4.4,4.4,0,0,0,4.41,4.41h5.85l1.79,2,6.36,7.22H45.25L33.53,14.15C33.54,14,33.55,13.91,33.55,13.78Z"/><path class="cls-2" d="M59.64,8H57.75L55.69,4.68l-.71.5V8H53.32V.12H55v3.6l.66-.92L57.77.12h1.85L56.88,3.6Z"/><path class="cls-2" d="M62.3,5V8H60.63V.12h2.3A3.92,3.92,0,0,1,65.3.71a2.09,2.09,0,0,1,.77,1.77,2.11,2.11,0,0,1-.38,1.23,2.47,2.47,0,0,1-1.09.85c1.19,1.77,2,2.91,2.32,3.43H65.07L63.19,5Zm0-1.35h.54A2,2,0,0,0,64,3.35a.93.93,0,0,0,.37-.83A.84.84,0,0,0,64,1.73a2.3,2.3,0,0,0-1.19-.24H62.3Z"/><path class="cls-2" d="M72.44,8H67.91V.12h4.53V1.49H69.57V3.22h2.67V4.58H69.57v2h2.87Z"/><path class="cls-2" d="M80.6,4a3.87,3.87,0,0,1-1.1,3,4.55,4.55,0,0,1-3.19,1H74.08V.12h2.47a4.15,4.15,0,0,1,3,1A3.75,3.75,0,0,1,80.6,4ZM78.87,4c0-1.69-.74-2.53-2.24-2.53h-.88V6.61h.71C78.07,6.61,78.87,5.75,78.87,4Z"/><path class="cls-2" d="M89.37,4.05a4.25,4.25,0,0,1-1,3,4.19,4.19,0,0,1-5.55,0,4.33,4.33,0,0,1-1-3,4.21,4.21,0,0,1,1-3,4.22,4.22,0,0,1,5.55,0A4.3,4.3,0,0,1,89.37,4.05Zm-5.74,0a3.3,3.3,0,0,0,.5,2,1.75,1.75,0,0,0,1.5.67c1.33,0,2-.89,2-2.65s-.66-2.66-2-2.66a1.76,1.76,0,0,0-1.5.67A3.24,3.24,0,0,0,83.63,4.05Z"/><path class="cls-2" d="M97.33,8H95.44L93.38,4.68l-.71.5V8H91V.12h1.67v3.6l.66-.92L95.46.12h1.85L94.56,3.6Z"/><path class="cls-2" d="M56.8,13.73a3,3,0,0,0-2.33.94,3.75,3.75,0,0,0-.85,2.6,3.9,3.9,0,0,0,.8,2.61,2.86,2.86,0,0,0,2.29.93,6.16,6.16,0,0,0,1.82-.25V21a5.75,5.75,0,0,1-2,.28A3.34,3.34,0,0,1,54,20.25a4.38,4.38,0,0,1-.95-3,4.63,4.63,0,0,1,.46-2.12,3.23,3.23,0,0,1,1.3-1.41,3.89,3.89,0,0,1,2-.5,4.9,4.9,0,0,1,2.06.43l-.22.5A4,4,0,0,0,56.8,13.73Z"/><path class="cls-2" d="M66.9,17.27a4.41,4.41,0,0,1-.94,3,3.6,3.6,0,0,1-5.16,0,4.44,4.44,0,0,1-.94-3,4.33,4.33,0,0,1,1-3,3.25,3.25,0,0,1,2.58-1.08A3.21,3.21,0,0,1,66,14.31,4.39,4.39,0,0,1,66.9,17.27Zm-6.44,0a4.06,4.06,0,0,0,.75,2.61,3,3,0,0,0,4.34,0,4,4,0,0,0,.75-2.62,4,4,0,0,0-.75-2.61,3,3,0,0,0-4.33,0A4,4,0,0,0,60.46,17.27Z"/><path class="cls-2" d="M74.42,21.21h-.55l-4.66-7h0c0,.83.06,1.46.06,1.88v5.1H68.7V13.35h.55l4.66,7h0c0-.65,0-1.26,0-1.84V13.35h.53Z"/><path class="cls-2" d="M81,19.18a1.88,1.88,0,0,1-.72,1.56,3,3,0,0,1-1.93.58A6.08,6.08,0,0,1,76.13,21v-.55a5.62,5.62,0,0,0,2.17.36,2.47,2.47,0,0,0,1.54-.44,1.54,1.54,0,0,0,.38-1.91,1.76,1.76,0,0,0-.62-.53,7,7,0,0,0-1.25-.52,4.36,4.36,0,0,1-1.66-.9,1.92,1.92,0,0,1,.23-2.72,2.75,2.75,0,0,1,1.78-.56,5.19,5.19,0,0,1,2.08.42l-.2.48a4.69,4.69,0,0,0-1.87-.41,2.21,2.21,0,0,0-1.39.4,1.33,1.33,0,0,0-.51,1.1,1.47,1.47,0,0,0,.15.71,1.49,1.49,0,0,0,.52.51,7.47,7.47,0,0,0,1.24.53,6.6,6.6,0,0,1,1.38.62,1.92,1.92,0,0,1,.68.68A1.83,1.83,0,0,1,81,19.18Z"/><path class="cls-2" d="M88.44,13.35v5.08a2.81,2.81,0,0,1-.79,2.12,3,3,0,0,1-2.19.77,2.67,2.67,0,0,1-2.9-2.91V13.35h.56v5.08a2.19,2.19,0,0,0,2.41,2.4,2.15,2.15,0,0,0,2.36-2.34V13.35Z"/><path class="cls-2" d="M90.58,21.21V13.35h.55v7.34h3.75v.52Z"/><path class="cls-2" d="M98.28,21.21h-.55V13.86H95.17v-.51h5.67v.51H98.28Z"/><path class="cls-2" d="M105.79,18.43H102.6l-1.1,2.78h-.61l3.16-7.9h.35l3.1,7.9h-.62Zm-3-.49h2.81l-1.07-2.84c-.09-.22-.2-.53-.32-.92-.1.34-.21.66-.32.94Z"/><path class="cls-2" d="M114.33,21.21h-.55l-4.66-7h0c0,.83.06,1.46.06,1.88v5.1h-.52V13.35h.55l4.65,7h0c0-.65,0-1.26,0-1.84V13.35h.53Z"/><path class="cls-2" d="M119.92,13.73a3,3,0,0,0-2.33.94,3.75,3.75,0,0,0-.85,2.6,3.9,3.9,0,0,0,.8,2.61,2.87,2.87,0,0,0,2.29.93,6.16,6.16,0,0,0,1.82-.25V21a5.75,5.75,0,0,1-2,.28,3.34,3.34,0,0,1-2.61-1.07,4.38,4.38,0,0,1-1-3,4.63,4.63,0,0,1,.46-2.12,3.29,3.29,0,0,1,1.3-1.41,3.89,3.89,0,0,1,2-.5,4.9,4.9,0,0,1,2.06.43l-.22.5A4,4,0,0,0,119.92,13.73Z"/><path class="cls-2" d="M125.21,17.65l2.31-4.3h.59l-2.62,4.82v3h-.57v-3l-2.63-4.86h.63Z"/><path class="cls-2" d="M71.73,28.87V25.92h.34v2.64h1.3v.31Z"/><path class="cls-2" d="M80.57,27.39a1.61,1.61,0,0,1-.36,1.11,1.27,1.27,0,0,1-1,.41,1.25,1.25,0,0,1-1-.4,1.92,1.92,0,0,1,0-2.24,1.44,1.44,0,0,1,2,0A1.61,1.61,0,0,1,80.57,27.39Zm-2.36,0a1.41,1.41,0,0,0,.26.91.9.9,0,0,0,.74.31A.87.87,0,0,0,80,28.3a1.41,1.41,0,0,0,.25-.91,1.36,1.36,0,0,0-.25-.9.86.86,0,0,0-.73-.31.91.91,0,0,0-.75.31A1.4,1.4,0,0,0,78.21,27.39Z"/><path class="cls-2" d="M87.66,28.87h-.39l-1.61-2.48h0c0,.29,0,.56,0,.8v1.68h-.32V25.92h.39l1.61,2.46h0s0-.15,0-.35,0-.33,0-.42V25.92h.32Z"/><path class="cls-2" d="M95,27.37a1.49,1.49,0,0,1-.4,1.11,1.54,1.54,0,0,1-1.14.39H92.6V25.92h.91a1.49,1.49,0,0,1,1.07.38A1.46,1.46,0,0,1,95,27.37Zm-.37,0a1,1,0,0,0-1.15-1.16H93v2.35h.41a1.26,1.26,0,0,0,.92-.3A1.18,1.18,0,0,0,94.59,27.38Z"/><path class="cls-2" d="M102.31,27.39A1.61,1.61,0,0,1,102,28.5a1.27,1.27,0,0,1-1,.41,1.25,1.25,0,0,1-1-.4,1.92,1.92,0,0,1,0-2.24,1.44,1.44,0,0,1,2,0A1.61,1.61,0,0,1,102.31,27.39Zm-2.35,0a1.41,1.41,0,0,0,.25.91.9.9,0,0,0,.74.31.87.87,0,0,0,.74-.31,1.41,1.41,0,0,0,.25-.91,1.36,1.36,0,0,0-.25-.9.86.86,0,0,0-.73-.31.91.91,0,0,0-.75.31A1.4,1.4,0,0,0,100,27.39Z"/><path class="cls-2" d="M109.4,28.87H109l-1.61-2.48h0c0,.29,0,.56,0,.8v1.68h-.31V25.92h.38l1.61,2.46h0s0-.15,0-.35,0-.33,0-.42V25.92h.32Z"/><line class="cls-3" x1="111.85" y1="27.39" x2="128.11" y2="27.39"/><line class="cls-3" x1="53.02" y1="27.39" x2="69.27" y2="27.39"/></g></g></svg>