<svg xmlns="http://www.w3.org/2000/svg" viewBox="0 0 45.25 27.32"><defs><style>.cls-1{fill:#26c4f3;}</style></defs><title>Asset 2</title><g id="Layer_2" data-name="Layer 2"><g id="Layer_1-2" data-name="Layer 1"><path class="cls-1" d="M4.62,13.66A13.86,13.86,0,0,1,16.1,0H0V27.32H16.1A13.88,13.88,0,0,1,4.62,13.66Z"/><path class="cls-1" d="M33.55,13.66h0c0-.13,0-.25,0-.37L45.25,0H33.89L27.53,7.22l-1.79,2H19.89a4.41,4.41,0,0,0-4.41,4.42h0a4.4,4.4,0,0,0,4.41,4.41h5.85l1.79,2,6.36,7.23H45.25L33.53,14C33.54,13.91,33.55,13.78,33.55,13.66Z"/></g></g></svg>