<?xml version="1.0" encoding="utf-8"?>
<!-- Generator: Adobe Illustrator 23.0.3, SVG Export Plug-In . SVG Version: 6.00 Build 0)  -->
<svg version="1.1" id="Layer_1" xmlns="http://www.w3.org/2000/svg" xmlns:xlink="http://www.w3.org/1999/xlink" x="0px" y="0px"
	 viewBox="0 0 128.1 28.9" style="enable-background:new 0 0 128.1 28.9;" xml:space="preserve">
<style type="text/css">
	.st0{fill:#FFFFFF;}
	.st1{fill:#FFFFFF;stroke:#FFFFFF;stroke-width:0.25;stroke-miterlimit:10;}
</style>
<title>Asset 1</title>
<g>
	<g id="Layer_1-2">
		<path class="st0" d="M4.6,13.8C4.6,7,9.5,1.3,16.1,0.1H0v27.3h16.1C9.5,26.3,4.6,20.5,4.6,13.8z"/>
		<path class="st0" d="M33.5,13.8L33.5,13.8c0-0.1,0-0.2,0-0.4L45.2,0.1H33.9l-6.4,7.2l-1.8,2h-5.9c-2.4,0-4.4,2-4.4,4.4
			c0,0,0,0,0,0l0,0c0,2.4,2,4.4,4.4,4.4c0,0,0,0,0,0h5.9l1.8,2l6.4,7.2h11.4L33.5,14.1C33.5,14,33.5,13.9,33.5,13.8z"/>
		<path class="st0" d="M59.6,8h-1.9l-2.1-3.3L55,5.2V8h-1.7V0.1H55v3.6l0.7-0.9l2.1-2.7h1.8l-2.7,3.5L59.6,8z"/>
		<path class="st0" d="M62.3,5v3h-1.7V0.1h2.3c0.8-0.1,1.7,0.1,2.4,0.6c0.5,0.4,0.8,1.1,0.8,1.8c0,0.4-0.1,0.9-0.4,1.2
			c-0.3,0.4-0.7,0.7-1.1,0.8c1.2,1.8,2,2.9,2.3,3.4h-1.9l-1.9-3H62.3z M62.3,3.7h0.5c0.4,0,0.8-0.1,1.2-0.3c0.3-0.2,0.4-0.5,0.4-0.8
			c0-0.3-0.1-0.6-0.4-0.8c-0.4-0.2-0.8-0.3-1.2-0.2h-0.5V3.7z"/>
		<path class="st0" d="M72.4,8h-4.5V0.1h4.5v1.4h-2.9v1.7h2.7v1.4h-2.7v2h2.9V8z"/>
		<path class="st0" d="M80.6,4c0.1,1.1-0.3,2.2-1.1,3c-0.9,0.7-2,1.1-3.2,1h-2.2V0.1h2.5c1.1-0.1,2.2,0.3,3,1
			C80.3,1.9,80.7,2.9,80.6,4z M78.9,4c0-1.7-0.7-2.5-2.2-2.5h-0.9v5.1h0.7C78.1,6.6,78.9,5.8,78.9,4z"/>
		<path class="st0" d="M89.4,4.1c0.1,1.1-0.3,2.2-1,3c-1.6,1.4-4,1.4-5.6,0c-0.7-0.8-1.1-1.9-1-3c-0.1-1.1,0.3-2.2,1-3
			c1.6-1.4,4-1.4,5.6,0C89.1,1.9,89.4,3,89.4,4.1z M83.6,4.1c-0.1,0.7,0.1,1.4,0.5,2c0.4,0.5,0.9,0.7,1.5,0.7c1.3,0,2-0.9,2-2.7
			s-0.7-2.7-2-2.7c-0.6,0-1.1,0.2-1.5,0.7C83.8,2.7,83.6,3.4,83.6,4.1z"/>
		<path class="st0" d="M97.3,8h-1.9l-2.1-3.3l-0.7,0.5V8H91V0.1h1.7v3.6l0.7-0.9l2.1-2.7h1.8l-2.8,3.5L97.3,8z"/>
		<path class="st0" d="M56.8,13.7c-0.9,0-1.7,0.3-2.3,0.9c-0.6,0.7-0.9,1.7-0.8,2.6c-0.1,0.9,0.2,1.9,0.8,2.6c0.6,0.6,1.4,1,2.3,0.9
			c0.6,0,1.2-0.1,1.8-0.2V21c-0.6,0.2-1.3,0.3-2,0.3c-1,0-1.9-0.3-2.5-1c-0.7-0.8-1-1.9-1-3c0-0.7,0.1-1.5,0.5-2.1
			c0.3-0.6,0.7-1.1,1.3-1.4c0.6-0.3,1.3-0.5,2-0.5c0.7,0,1.4,0.1,2.1,0.4l-0.2,0.5C58.1,13.9,57.4,13.7,56.8,13.7z"/>
		<path class="st0" d="M66.9,17.3c0.1,1.1-0.3,2.1-0.9,3c-1.4,1.4-3.7,1.5-5.1,0.1c0,0,0,0-0.1-0.1c-0.7-0.9-1-1.9-0.9-3
			c-0.1-1.1,0.3-2.2,1-3c0.7-0.7,1.6-1.1,2.6-1.1c1,0,1.9,0.4,2.6,1.1C66.6,15.2,67,16.2,66.9,17.3z M60.5,17.3
			c-0.1,0.9,0.2,1.9,0.8,2.6c1.1,1.2,3,1.2,4.2,0.1c0,0,0.1-0.1,0.1-0.1c0.5-0.8,0.8-1.7,0.8-2.6c0.1-0.9-0.2-1.9-0.8-2.6
			c-1.1-1.2-3-1.2-4.2-0.1c0,0-0.1,0.1-0.1,0.1C60.7,15.4,60.4,16.3,60.5,17.3z"/>
		<path class="st0" d="M74.4,21.2h-0.6l-4.7-7l0,0c0,0.8,0.1,1.5,0.1,1.9v5.1h-0.6v-7.8h0.6l4.7,7l0,0c0-0.6,0-1.3,0-1.8v-5.2h0.5
			L74.4,21.2z"/>
		<path class="st0" d="M81,19.2c0,0.6-0.2,1.2-0.7,1.6c-0.6,0.4-1.2,0.6-1.9,0.6c-0.8,0-1.5-0.1-2.2-0.3v-0.5
			c0.7,0.3,1.4,0.4,2.2,0.4c0.5,0,1.1-0.1,1.5-0.4c0.6-0.5,0.7-1.3,0.4-1.9c-0.2-0.2-0.4-0.4-0.6-0.5c-0.4-0.2-0.8-0.4-1.2-0.5
			c-0.6-0.2-1.2-0.5-1.7-0.9c-0.7-0.8-0.6-2,0.2-2.7c0,0,0,0,0,0c0.5-0.4,1.1-0.6,1.8-0.6c0.7,0,1.4,0.1,2.1,0.4l-0.2,0.5
			c-0.6-0.3-1.2-0.4-1.9-0.4c-0.5,0-1,0.1-1.4,0.4c-0.3,0.3-0.5,0.7-0.5,1.1c0,0.2,0,0.5,0.2,0.7c0.1,0.2,0.3,0.4,0.5,0.5
			c0.4,0.2,0.8,0.4,1.2,0.5c0.5,0.2,0.9,0.4,1.4,0.6c0.3,0.2,0.5,0.4,0.7,0.7C80.9,18.5,81,18.9,81,19.2z"/>
		<path class="st0" d="M88.4,13.4v5.1c0,0.8-0.2,1.6-0.8,2.1c-0.6,0.5-1.4,0.8-2.2,0.8c-1.5,0.1-2.8-0.9-2.9-2.4c0-0.2,0-0.3,0-0.5
			v-5.1h0.6v5.1c-0.1,1.2,0.8,2.3,2,2.4c0.2,0,0.3,0,0.5,0c1.2,0.1,2.2-0.7,2.4-1.9c0-0.1,0-0.3,0-0.4v-5.1H88.4z"/>
		<path class="st0" d="M90.6,21.2v-7.9h0.6v7.3h3.8v0.5L90.6,21.2z"/>
		<path class="st0" d="M98.3,21.2h-0.6v-7.3h-2.6v-0.5h5.7v0.5h-2.6V21.2z"/>
		<path class="st0" d="M105.8,18.4h-3.2l-1.1,2.8h-0.6l3.2-7.9h0.3l3.1,7.9h-0.6L105.8,18.4z M102.8,17.9h2.8l-1.1-2.8
			c-0.1-0.2-0.2-0.5-0.3-0.9c-0.1,0.3-0.2,0.7-0.3,0.9L102.8,17.9z"/>
		<path class="st0" d="M114.3,21.2h-0.6l-4.7-7l0,0c0,0.8,0.1,1.5,0.1,1.9v5.1h-0.5v-7.8h0.6l4.7,7l0,0c0-0.6,0-1.3,0-1.8v-5.2h0.5
			L114.3,21.2z"/>
		<path class="st0" d="M119.9,13.7c-0.9,0-1.7,0.3-2.3,0.9c-0.6,0.7-0.9,1.7-0.8,2.6c-0.1,0.9,0.2,1.9,0.8,2.6
			c0.6,0.6,1.4,1,2.3,0.9c0.6,0,1.2-0.1,1.8-0.2V21c-0.6,0.2-1.3,0.3-2,0.3c-1,0-1.9-0.3-2.6-1.1c-0.7-0.8-1.1-1.9-1-3
			c0-0.7,0.1-1.5,0.5-2.1c0.3-0.6,0.7-1.1,1.3-1.4c0.6-0.3,1.3-0.5,2-0.5c0.7,0,1.4,0.1,2.1,0.4l-0.2,0.5
			C121.1,13.9,120.5,13.7,119.9,13.7z"/>
		<path class="st0" d="M125.2,17.6l2.3-4.3h0.6l-2.6,4.8v3h-0.6v-3l-2.6-4.9h0.6L125.2,17.6z"/>
		<path class="st0" d="M71.7,28.9v-3h0.3v2.6h1.3v0.3L71.7,28.9z"/>
		<path class="st0" d="M80.6,27.4c0,0.4-0.1,0.8-0.4,1.1c-0.3,0.3-0.6,0.4-1,0.4c-0.4,0-0.7-0.1-1-0.4c-0.5-0.7-0.5-1.6,0-2.2
			c0.6-0.5,1.4-0.5,2,0C80.5,26.6,80.6,27,80.6,27.4z M78.2,27.4c0,0.3,0.1,0.6,0.3,0.9c0.2,0.2,0.5,0.3,0.7,0.3
			c0.3,0,0.6-0.1,0.8-0.3c0.2-0.3,0.3-0.6,0.2-0.9c0-0.3-0.1-0.6-0.2-0.9c-0.2-0.2-0.5-0.3-0.7-0.3c-0.3,0-0.6,0.1-0.8,0.3
			C78.3,26.7,78.2,27.1,78.2,27.4z"/>
		<path class="st0" d="M87.7,28.9h-0.4l-1.6-2.5l0,0c0,0.3,0,0.6,0,0.8v1.7h-0.3v-3h0.4l1.6,2.5l0,0c0,0,0-0.1,0-0.4s0-0.3,0-0.4
			v-1.7h0.3V28.9z"/>
		<path class="st0" d="M95,27.4c0,0.4-0.1,0.8-0.4,1.1c-0.3,0.3-0.7,0.4-1.1,0.4h-0.9v-3h0.9c0.4,0,0.8,0.1,1.1,0.4
			C94.9,26.6,95,27,95,27.4z M94.6,27.4c0.1-0.5-0.3-1.1-0.8-1.2c-0.1,0-0.2,0-0.3,0H93v2.4h0.4c0.3,0,0.7-0.1,0.9-0.3
			C94.5,28,94.6,27.7,94.6,27.4L94.6,27.4z"/>
		<path class="st0" d="M102.3,27.4c0,0.4-0.1,0.8-0.3,1.1c-0.3,0.3-0.6,0.4-1,0.4c-0.4,0-0.7-0.1-1-0.4c-0.5-0.7-0.5-1.6,0-2.2
			c0.6-0.5,1.4-0.5,2,0C102.2,26.6,102.3,27,102.3,27.4z M100,27.4c0,0.3,0.1,0.6,0.2,0.9c0.2,0.2,0.5,0.3,0.7,0.3
			c0.3,0,0.6-0.1,0.7-0.3c0.2-0.3,0.3-0.6,0.2-0.9c0-0.3-0.1-0.6-0.2-0.9c-0.2-0.2-0.5-0.3-0.7-0.3c-0.3,0-0.6,0.1-0.8,0.3
			C100,26.8,100,27.1,100,27.4L100,27.4z"/>
		<path class="st0" d="M109.4,28.9H109l-1.6-2.5l0,0c0,0.3,0,0.6,0,0.8v1.7h-0.3v-3h0.4l1.6,2.5l0,0c0,0,0-0.1,0-0.4s0-0.3,0-0.4
			v-1.7h0.3L109.4,28.9z"/>
		<line class="st1" x1="111.8" y1="27.4" x2="128.1" y2="27.4"/>
		<line class="st1" x1="53" y1="27.4" x2="69.3" y2="27.4"/>
	</g>
</g>
</svg>
