<svg xmlns="http://www.w3.org/2000/svg" viewBox="0 0 225.29 136.04"><defs><style>.cls-1{fill:#294c79;}.cls-2{fill:#ababab;}.cls-3{fill:#26c4f3;}</style></defs><title>Asset 8</title><g id="Layer_2" data-name="Layer 2"><g id="Layer_1-2" data-name="Layer 1"><path class="cls-1" d="M98.83,120.78h-4.4v-7.64h4.4v1.33H96.05v1.68h2.59v1.32H96.05v2h2.78Z"/><path class="cls-1" d="M107.1,120.78H105L101.71,115h0c.07,1,.1,1.75.1,2.19v3.59h-1.44v-7.64h2l3.32,5.72h0c-.06-1-.08-1.69-.08-2.1v-3.62h1.46Z"/><path class="cls-1" d="M111.86,120.78h-1.62v-6.29h-2.07v-1.35h5.77v1.35h-2.08Z"/><path class="cls-1" d="M119.41,120.78H115v-7.64h4.4v1.33h-2.78v1.68h2.59v1.32h-2.59v2h2.78Z"/><path class="cls-1" d="M122.52,117.85v2.93H120.9v-7.64h2.22a3.81,3.81,0,0,1,2.31.57,2.24,2.24,0,0,1,.37,2.92,2.38,2.38,0,0,1-1,.82q1.73,2.58,2.25,3.33h-1.8l-1.82-2.93Zm0-1.32H123a2,2,0,0,0,1.13-.25.91.91,0,0,0,.37-.81.83.83,0,0,0-.38-.77,2.15,2.15,0,0,0-1.15-.23h-.49Z"/><path class="cls-1" d="M133.14,115.52a2.34,2.34,0,0,1-.77,1.89,3.3,3.3,0,0,1-2.2.65h-.69v2.72h-1.62v-7.64h2.44a3.22,3.22,0,0,1,2.11.6A2.19,2.19,0,0,1,133.14,115.52Zm-3.66,1.22H130a1.76,1.76,0,0,0,1.12-.3,1,1,0,0,0,.37-.86,1,1,0,0,0-.31-.84,1.47,1.47,0,0,0-1-.27h-.73Z"/><path class="cls-1" d="M136.09,117.85v2.93h-1.62v-7.64h2.23a3.76,3.76,0,0,1,2.3.57,2.26,2.26,0,0,1,.38,2.92,2.49,2.49,0,0,1-1,.82q1.72,2.58,2.25,3.33h-1.8L137,117.85Zm0-1.32h.53a2,2,0,0,0,1.13-.25.93.93,0,0,0,.37-.81.83.83,0,0,0-.38-.77,2.19,2.19,0,0,0-1.16-.23h-.49Z"/><path class="cls-1" d="M141.43,120.78v-7.64h1.62v7.64Z"/><path class="cls-1" d="M149.38,118.66a2,2,0,0,1-.74,1.63,3.24,3.24,0,0,1-2.08.6,5,5,0,0,1-2.16-.46v-1.51a9.83,9.83,0,0,0,1.31.49,4.06,4.06,0,0,0,1,.14,1.44,1.44,0,0,0,.82-.2.77.77,0,0,0,.16-1,1.54,1.54,0,0,0-.37-.34,9.13,9.13,0,0,0-1-.52,4.64,4.64,0,0,1-1.05-.63,2.34,2.34,0,0,1-.56-.7,2,2,0,0,1-.21-.94,2,2,0,0,1,.69-1.6,2.84,2.84,0,0,1,1.9-.58,4.66,4.66,0,0,1,1.13.14,9.21,9.21,0,0,1,1.14.4l-.53,1.26a6.48,6.48,0,0,0-1-.35,3.11,3.11,0,0,0-.79-.1,1,1,0,0,0-.7.21.7.7,0,0,0-.25.56.8.8,0,0,0,.1.38,1,1,0,0,0,.32.3,8.54,8.54,0,0,0,1,.54,3.94,3.94,0,0,1,1.46,1A2,2,0,0,1,149.38,118.66Z"/><path class="cls-1" d="M155.06,120.78h-4.4v-7.64h4.4v1.33h-2.78v1.68h2.59v1.32h-2.59v2h2.78Z"/><path class="cls-1" d="M99.75,132l-.55-1.82H96.41L95.86,132H94.11l2.7-7.67h2L101.5,132Zm-.94-3.18q-.77-2.47-.87-2.79c-.06-.22-.11-.39-.14-.52-.11.45-.44,1.55-1,3.31Z"/><path class="cls-1" d="M104,129.1V132h-1.62v-7.64h2.23a3.76,3.76,0,0,1,2.3.57,2.26,2.26,0,0,1,.38,2.92,2.49,2.49,0,0,1-1.05.82q1.73,2.58,2.25,3.33h-1.8l-1.83-2.93Zm0-1.32h.52a2,2,0,0,0,1.14-.25.93.93,0,0,0,.37-.81.83.83,0,0,0-.38-.77,2.19,2.19,0,0,0-1.16-.23H104Z"/><path class="cls-1" d="M112.56,125.63a1.66,1.66,0,0,0-1.42.69,3.19,3.19,0,0,0-.5,1.91c0,1.71.64,2.56,1.92,2.56a6.36,6.36,0,0,0,2-.4v1.36a5.46,5.46,0,0,1-2.1.39,3.23,3.23,0,0,1-2.56-1,4.36,4.36,0,0,1-.88-2.91,4.76,4.76,0,0,1,.44-2.09,3.17,3.17,0,0,1,1.24-1.37,3.69,3.69,0,0,1,1.91-.48,5.15,5.15,0,0,1,2.24.54l-.53,1.32a7.12,7.12,0,0,0-.86-.36A2.58,2.58,0,0,0,112.56,125.63Z"/><path class="cls-1" d="M122.29,132h-1.62v-3.3h-3V132H116v-7.64h1.62v3h3v-3h1.62Z"/><path class="cls-1" d="M124.11,132v-7.64h1.62V132Z"/><path class="cls-1" d="M130.5,132h-1.62v-6.29H126.8v-1.35h5.77v1.35H130.5Z"/><path class="cls-1" d="M138,132h-4.4v-7.64H138v1.33h-2.78v1.68h2.59v1.32h-2.59v2H138Z"/><path class="cls-1" d="M142.78,125.63a1.65,1.65,0,0,0-1.42.69,3.12,3.12,0,0,0-.5,1.91c0,1.71.64,2.56,1.92,2.56a6.36,6.36,0,0,0,1.95-.4v1.36a5.47,5.47,0,0,1-2.11.39,3.22,3.22,0,0,1-2.55-1,4.31,4.31,0,0,1-.88-2.91,4.76,4.76,0,0,1,.43-2.09,3.2,3.2,0,0,1,1.25-1.37,3.69,3.69,0,0,1,1.91-.48,5.11,5.11,0,0,1,2.23.54l-.52,1.32a7.86,7.86,0,0,0-.86-.36A2.63,2.63,0,0,0,142.78,125.63Z"/><path class="cls-1" d="M149.19,132h-1.62v-6.29H145.5v-1.35h5.77v1.35h-2.08Z"/><path class="cls-1" d="M158.56,124.39v4.94a2.9,2.9,0,0,1-.38,1.49,2.45,2.45,0,0,1-1.1,1,4,4,0,0,1-1.69.34,3.26,3.26,0,0,1-2.29-.76,2.69,2.69,0,0,1-.82-2.07v-4.92h1.62v4.68a2,2,0,0,0,.35,1.3,1.5,1.5,0,0,0,1.18.41,1.42,1.42,0,0,0,1.15-.42,2,2,0,0,0,.36-1.3v-4.67Z"/><path class="cls-1" d="M161.94,129.1V132h-1.62v-7.64h2.23a3.76,3.76,0,0,1,2.3.57,2.26,2.26,0,0,1,.38,2.92,2.49,2.49,0,0,1-1,.82q1.73,2.58,2.25,3.33h-1.8l-1.82-2.93Zm0-1.32h.53a2,2,0,0,0,1.13-.25.93.93,0,0,0,.37-.81.83.83,0,0,0-.38-.77,2.18,2.18,0,0,0-1.15-.23h-.5Z"/><path class="cls-1" d="M171.68,132h-4.4v-7.64h4.4v1.33H168.9v1.68h2.59v1.32H168.9v2h2.78Z"/><path class="cls-2" d="M48.4,72.72v.86H46.64V75.2H48.4v.87H44.31V75.2h1.6V73.58h-1.6v-.86Z"/><path class="cls-2" d="M48.4,71.74H44.31v-.87H48.4Z"/><path class="cls-2" d="M46.1,68.35V66.72h2.13a6.21,6.21,0,0,1,.18.75,5.52,5.52,0,0,1,.05.71,1.76,1.76,0,0,1-.55,1.41,2.23,2.23,0,0,1-1.56.49,2.06,2.06,0,0,1-1.54-.56,2.18,2.18,0,0,1-.56-1.58,3.16,3.16,0,0,1,.25-1.21l.7.29A2.06,2.06,0,0,0,45,68a1.17,1.17,0,0,0,.38.9,1.45,1.45,0,0,0,1,.34,1.67,1.67,0,0,0,1-.27,1,1,0,0,0,.35-.8,2.64,2.64,0,0,0-.06-.55h-.85v.78Z"/><path class="cls-2" d="M48.4,62.45v.87H46.64v1.62H48.4v.87H44.31v-.87h1.6V63.32h-1.6v-.87Z"/><path class="cls-2" d="M48.4,60.05H44.31v-.87h3.38V57.52h.71Z"/><path class="cls-2" d="M46.35,53.15a2.23,2.23,0,0,1,1.56.5,1.86,1.86,0,0,1,.55,1.45,1.83,1.83,0,0,1-.55,1.44,2.66,2.66,0,0,1-3.13,0,1.91,1.91,0,0,1-.53-1.45,1.86,1.86,0,0,1,.54-1.44A2.23,2.23,0,0,1,46.35,53.15Zm0,3a1.72,1.72,0,0,0,1-.26.93.93,0,0,0,.35-.78c0-.69-.46-1-1.38-1s-1.38.34-1.38,1a.88.88,0,0,0,.35.78A1.65,1.65,0,0,0,46.35,56.14Z"/><path class="cls-2" d="M48.4,49.86l-1,.29v1.49l1,.3v.94l-4.11-1.45V50.37l4.11-1.45Zm-1.7.5-1.5.46-.27.08c.24.06.83.23,1.77.53Z"/><path class="cls-2" d="M46.32,45.07a2,2,0,0,1,1.55.57,2.4,2.4,0,0,1,.53,1.66v1.16H44.31V47.18a2.18,2.18,0,0,1,.53-1.56A2,2,0,0,1,46.32,45.07Zm0,.9c-.88,0-1.32.39-1.32,1.16v.46h2.67v-.37C47.69,46.39,47.24,46,46.34,46Z"/><path class="cls-2" d="M54.13,74.69l-3.21,1v0c.66,0,1.09-.06,1.31-.06h1.9v.78H50V75.24l3.13-1v0l-3.13-1V72.05h4.09v.8H51.88l-1,0v0l3.2,1Z"/><path class="cls-2" d="M54.13,68.72v2.35H50V68.72h.71V70.2h.9V68.82h.71V70.2h1.06V68.72Z"/><path class="cls-2" d="M53,65.5a1.06,1.06,0,0,1,.87.4A1.77,1.77,0,0,1,54.19,67a2.51,2.51,0,0,1-.25,1.16h-.8a4.88,4.88,0,0,0,.26-.7,2.07,2.07,0,0,0,.07-.52.78.78,0,0,0-.1-.44.4.4,0,0,0-.33-.15.37.37,0,0,0-.21.06.59.59,0,0,0-.18.2,5.09,5.09,0,0,0-.28.53,2.4,2.4,0,0,1-.34.56,1.1,1.1,0,0,1-.38.3,1,1,0,0,1-.5.11,1.09,1.09,0,0,1-.86-.36,1.59,1.59,0,0,1-.31-1,2.43,2.43,0,0,1,.08-.61,4.94,4.94,0,0,1,.21-.61l.68.28a3.3,3.3,0,0,0-.19.55,1.51,1.51,0,0,0,0,.42.51.51,0,0,0,.11.37.39.39,0,0,0,.3.14.34.34,0,0,0,.2-.06.55.55,0,0,0,.17-.17,5.94,5.94,0,0,0,.28-.55,2.3,2.3,0,0,1,.55-.78A1.11,1.11,0,0,1,53,65.5Z"/><path class="cls-2" d="M53,62.41a1.06,1.06,0,0,1,.87.39,1.77,1.77,0,0,1,.32,1.11,2.51,2.51,0,0,1-.25,1.16h-.8a4.88,4.88,0,0,0,.26-.7,2.07,2.07,0,0,0,.07-.52.78.78,0,0,0-.1-.44.4.4,0,0,0-.33-.15.37.37,0,0,0-.21.06.59.59,0,0,0-.18.2,5.09,5.09,0,0,0-.28.53,2.4,2.4,0,0,1-.34.56,1.1,1.1,0,0,1-.38.3,1,1,0,0,1-.5.12,1.1,1.1,0,0,1-.86-.37,1.59,1.59,0,0,1-.31-1,2.43,2.43,0,0,1,.08-.61,4.94,4.94,0,0,1,.21-.61l.68.28a3.3,3.3,0,0,0-.19.55,1.51,1.51,0,0,0,0,.42.51.51,0,0,0,.11.37.39.39,0,0,0,.3.14.34.34,0,0,0,.2-.06.55.55,0,0,0,.17-.17,5.94,5.94,0,0,0,.28-.55,2.3,2.3,0,0,1,.55-.78A1.1,1.1,0,0,1,53,62.41Z"/><path class="cls-2" d="M54.13,59.22l-1,.29V61l1,.3v.94L50,60.79V59.73l4.1-1.45Zm-1.7.5-1.49.46-.28.08c.24.06.83.23,1.77.53Z"/><path class="cls-2" d="M51.84,56.27V54.65H54a6.08,6.08,0,0,1,.18.74,5.52,5.52,0,0,1,0,.71,1.82,1.82,0,0,1-.54,1.42,2.32,2.32,0,0,1-1.57.48,2.08,2.08,0,0,1-1.54-.56A2.15,2.15,0,0,1,50,55.87a3,3,0,0,1,.26-1.22l.69.29a2,2,0,0,0-.22.93,1.13,1.13,0,0,0,.37.9,1.46,1.46,0,0,0,1,.34,1.67,1.67,0,0,0,1-.27,1,1,0,0,0,.35-.79,2.67,2.67,0,0,0-.06-.56h-.85v.78Z"/><path class="cls-2" d="M54.13,51.37v2.36H50V51.37h.71v1.49h.9V51.48h.71v1.38h1.06V51.37Z"/><path class="cls-2" d="M51.32,46.32a1.23,1.23,0,0,1,1,.41,1.79,1.79,0,0,1,.35,1.17v.38h1.45v.86H50v-1.3a1.73,1.73,0,0,1,.32-1.13A1.19,1.19,0,0,1,51.32,46.32Zm.65,2V48a.93.93,0,0,0-.16-.6.57.57,0,0,0-.46-.2.58.58,0,0,0-.45.17.75.75,0,0,0-.15.52v.4Z"/><path class="cls-2" d="M52.56,44.73h1.57v.87H50V44.41a2,2,0,0,1,.31-1.23,1.07,1.07,0,0,1,.92-.4,1.1,1.1,0,0,1,.64.19,1.27,1.27,0,0,1,.44.57c.92-.62,1.52-1,1.78-1.21v1l-1.57,1Zm-.7,0v-.28a1.06,1.06,0,0,0-.14-.6.49.49,0,0,0-.43-.2.45.45,0,0,0-.41.2,1.15,1.15,0,0,0-.13.62v.26Z"/><path class="cls-2" d="M52.08,38.16a2.23,2.23,0,0,1,1.57.51,2.19,2.19,0,0,1,0,2.88,2.23,2.23,0,0,1-1.57.51,2.19,2.19,0,0,1-1.56-.51,2.2,2.2,0,0,1,0-2.89A2.23,2.23,0,0,1,52.08,38.16Zm0,3a1.77,1.77,0,0,0,1-.26.93.93,0,0,0,.34-.78c0-.69-.46-1-1.38-1s-1.38.35-1.38,1a.91.91,0,0,0,.35.78A1.67,1.67,0,0,0,52.08,41.15Z"/><path class="cls-2" d="M50.71,35.63a.89.89,0,0,0,.36.76,1.73,1.73,0,0,0,1,.27c.91,0,1.37-.34,1.37-1a3.08,3.08,0,0,0-.22-1H54a2.87,2.87,0,0,1,.21,1.12,1.73,1.73,0,0,1-.54,1.37,2.33,2.33,0,0,1-1.56.47A2.45,2.45,0,0,1,51,37.32a1.72,1.72,0,0,1-.74-.67,2,2,0,0,1-.26-1,2.85,2.85,0,0,1,.29-1.2l.71.28a3.08,3.08,0,0,0-.19.47A1.19,1.19,0,0,0,50.71,35.63Z"/><path class="cls-2" d="M54.13,31.42v2.35H50V31.42h.71v1.49h.9V31.52h.71v1.39h1.06V31.42Z"/><path class="cls-2" d="M53,28.21a1,1,0,0,1,.87.4,1.73,1.73,0,0,1,.32,1.11,2.5,2.5,0,0,1-.25,1.15h-.8a4.88,4.88,0,0,0,.26-.7,2,2,0,0,0,.07-.52.78.78,0,0,0-.1-.44.4.4,0,0,0-.33-.15.31.31,0,0,0-.21.07.55.55,0,0,0-.18.19c-.06.09-.15.27-.28.53a2.75,2.75,0,0,1-.34.57,1.4,1.4,0,0,1-.38.3,1.12,1.12,0,0,1-.5.11,1.1,1.1,0,0,1-.86-.37,1.59,1.59,0,0,1-.31-1,2.49,2.49,0,0,1,.08-.61,4.32,4.32,0,0,1,.21-.6l.68.28a3.24,3.24,0,0,0-.19.54,1.51,1.51,0,0,0,0,.42.56.56,0,0,0,.11.38.42.42,0,0,0,.3.13.34.34,0,0,0,.2-.06.62.62,0,0,0,.17-.16c0-.08.14-.26.28-.55a2.26,2.26,0,0,1,.55-.79A1.1,1.1,0,0,1,53,28.21Z"/><path class="cls-2" d="M53,25.11a1.06,1.06,0,0,1,.87.39,1.77,1.77,0,0,1,.32,1.11,2.51,2.51,0,0,1-.25,1.16h-.8a4.88,4.88,0,0,0,.26-.7,2,2,0,0,0,.07-.52.78.78,0,0,0-.1-.44A.4.4,0,0,0,53,26a.37.37,0,0,0-.21.06.7.7,0,0,0-.18.2c-.06.09-.15.27-.28.53a2.4,2.4,0,0,1-.34.56,1.1,1.1,0,0,1-.38.3,1,1,0,0,1-.5.12,1.1,1.1,0,0,1-.86-.37,1.59,1.59,0,0,1-.31-1,2.43,2.43,0,0,1,.08-.61,4.32,4.32,0,0,1,.21-.6l.68.28a3,3,0,0,0-.19.54,1.51,1.51,0,0,0,0,.42.56.56,0,0,0,.11.38.42.42,0,0,0,.3.13.34.34,0,0,0,.2-.06.62.62,0,0,0,.17-.16c0-.08.14-.26.28-.55a2.26,2.26,0,0,1,.55-.79A1.1,1.1,0,0,1,53,25.11Z"/><path class="cls-2" d="M54.13,24.42H50v-.87h4.09Z"/><path class="cls-2" d="M54.13,19v1.1L51,21.84v0c.55,0,.94-.05,1.17-.05h1.92v.77H50V21.49l3.07-1.78v0c-.53,0-.91,0-1.13,0H50V19Z"/><path class="cls-2" d="M51.84,16.43V14.8H54a5.8,5.8,0,0,1,.18.75,5.39,5.39,0,0,1,0,.71,1.79,1.79,0,0,1-.54,1.41,2.27,2.27,0,0,1-1.57.49,2,2,0,0,1-1.54-.57A2.14,2.14,0,0,1,50,16a3,3,0,0,1,.26-1.21l.69.29a2,2,0,0,0-.22.93,1.16,1.16,0,0,0,.37.9,1.46,1.46,0,0,0,1,.34,1.67,1.67,0,0,0,1-.27,1,1,0,0,0,.35-.8,2.64,2.64,0,0,0-.06-.55h-.85v.78Z"/><path class="cls-2" d="M175.26,74.55v-7.7h1.64v7.7Z"/><path class="cls-2" d="M185.72,70.69a4.17,4.17,0,0,1-.95,2.94,4.11,4.11,0,0,1-5.44,0,4.2,4.2,0,0,1-1-2.95,4.13,4.13,0,0,1,1-2.94,3.56,3.56,0,0,1,2.72-1,3.52,3.52,0,0,1,2.72,1A4.22,4.22,0,0,1,185.72,70.69Zm-5.62,0a3.22,3.22,0,0,0,.49,2,1.71,1.71,0,0,0,1.46.65c1.3,0,2-.87,2-2.6s-.65-2.6-1.95-2.6a1.74,1.74,0,0,0-1.47.65A3.22,3.22,0,0,0,180.1,70.69Z"/><path class="cls-2" d="M190.18,74.55h-1.64V68.21h-2.09V66.85h5.82v1.36h-2.09Z"/><path class="cls-1" d="M77,123.46l-6,1.85v0c1.23-.07,2-.1,2.46-.1H77v1.45H69.29V124.5l5.87-1.82v0l-5.87-1.93V118.5H77V120H72.74L71,119.94v0l6,2Z"/><path class="cls-1" d="M77,116.67H69.29v-1.62H77Z"/><path class="cls-1" d="M70.53,110a1.66,1.66,0,0,0,.69,1.42,3.19,3.19,0,0,0,1.93.5c1.71,0,2.57-.64,2.57-1.92a6.08,6.08,0,0,0-.41-2h1.37a5.47,5.47,0,0,1,.39,2.11,3.23,3.23,0,0,1-1,2.56,4.32,4.32,0,0,1-2.92.89,4.64,4.64,0,0,1-2.1-.44,3.11,3.11,0,0,1-1.38-1.25,3.69,3.69,0,0,1-.48-1.91,5.16,5.16,0,0,1,.54-2.25l1.32.52c-.14.29-.25.58-.36.87A2.64,2.64,0,0,0,70.53,110Z"/><path class="cls-1" d="M74,104.84h3v1.63H69.29v-2.24a3.81,3.81,0,0,1,.57-2.31,2.24,2.24,0,0,1,2.93-.38,2.44,2.44,0,0,1,.83,1c1.73-1.15,2.84-1.91,3.35-2.26v1.81L74,104Zm-1.32,0v-.52a2,2,0,0,0-.26-1.14.91.91,0,0,0-.81-.37.84.84,0,0,0-.78.37,2.37,2.37,0,0,0-.23,1.17v.49Z"/><path class="cls-1" d="M73.12,92.5a4.18,4.18,0,0,1,2.93,1,4.11,4.11,0,0,1,0,5.42,4.21,4.21,0,0,1-2.94.95,4.13,4.13,0,0,1-2.93-.95,4.11,4.11,0,0,1,0-5.43A4.17,4.17,0,0,1,73.12,92.5Zm0,5.61a3.21,3.21,0,0,0,1.94-.49,1.71,1.71,0,0,0,.65-1.46c0-1.3-.87-2-2.59-2s-2.6.65-2.6,1.94a1.74,1.74,0,0,0,.65,1.47A3.3,3.3,0,0,0,73.12,98.11Z"/><path class="cls-1" d="M74.83,86.48a2,2,0,0,1,1.64.75,3.25,3.25,0,0,1,.6,2.09,4.87,4.87,0,0,1-.46,2.17H75.1a9.89,9.89,0,0,0,.49-1.32,4,4,0,0,0,.14-1,1.36,1.36,0,0,0-.21-.82.7.7,0,0,0-.61-.29.64.64,0,0,0-.4.13,1.24,1.24,0,0,0-.34.37,9.13,9.13,0,0,0-.52,1A5,5,0,0,1,73,90.63a2.55,2.55,0,0,1-.71.56,2,2,0,0,1-1,.21,2,2,0,0,1-1.6-.69,2.87,2.87,0,0,1-.58-1.91,4.24,4.24,0,0,1,.14-1.14,7.43,7.43,0,0,1,.4-1.14l1.26.53a9.6,9.6,0,0,0-.35,1,3.64,3.64,0,0,0-.1.79,1,1,0,0,0,.22.71.69.69,0,0,0,.56.25.7.7,0,0,0,.38-.1,1,1,0,0,0,.3-.32,7.9,7.9,0,0,0,.54-1,4.17,4.17,0,0,1,1-1.48A2,2,0,0,1,74.83,86.48Z"/><path class="cls-1" d="M77,80.77V85.2H69.29V80.77h1.33v2.8h1.69V81h1.33v2.6h2v-2.8Z"/><path class="cls-1" d="M74,77.65h3v1.63H69.29V77a3.85,3.85,0,0,1,.57-2.32,2.25,2.25,0,0,1,2.93-.37,2.38,2.38,0,0,1,.83,1.05c1.73-1.15,2.84-1.91,3.35-2.26V75l-3,1.83Zm-1.32,0v-.52A2,2,0,0,0,72.44,76a.91.91,0,0,0-.81-.37.84.84,0,0,0-.78.37,2.34,2.34,0,0,0-.23,1.17v.49Z"/><path class="cls-1" d="M69.29,67.9V66.26L77,68.87v1.77l-7.68,2.61V71.6l4.57-1.44.94-.25c.36-.09.61-.14.75-.16a12.88,12.88,0,0,1-1.69-.4Z"/><path class="cls-1" d="M77,65.4H69.29V63.77H77Z"/><path class="cls-1" d="M70.53,58.68a1.65,1.65,0,0,0,.69,1.42,3.19,3.19,0,0,0,1.93.51c1.71,0,2.57-.64,2.57-1.93a6.13,6.13,0,0,0-.41-2h1.37a5.51,5.51,0,0,1,.39,2.11,3.25,3.25,0,0,1-1,2.57,4.32,4.32,0,0,1-2.92.89,4.77,4.77,0,0,1-2.1-.44,3.17,3.17,0,0,1-1.38-1.25,3.75,3.75,0,0,1-.48-1.92,5.19,5.19,0,0,1,.54-2.25L71,57a9.19,9.19,0,0,0-.36.86A2.69,2.69,0,0,0,70.53,58.68Z"/><path class="cls-1" d="M77,50.77v4.42H69.29V50.77h1.33v2.8h1.69V51h1.33v2.61h2v-2.8Z"/><path class="cls-1" d="M74.83,44.74a2,2,0,0,1,1.64.75,3.24,3.24,0,0,1,.6,2.08,4.89,4.89,0,0,1-.46,2.18H75.1a9.89,9.89,0,0,0,.49-1.32,4.12,4.12,0,0,0,.14-1,1.36,1.36,0,0,0-.21-.82.68.68,0,0,0-.61-.29.64.64,0,0,0-.4.13,1.24,1.24,0,0,0-.34.37,9.13,9.13,0,0,0-.52,1A5,5,0,0,1,73,48.89a2.55,2.55,0,0,1-.71.56,2,2,0,0,1-1,.21,2,2,0,0,1-1.6-.69,2.87,2.87,0,0,1-.58-1.91,4.24,4.24,0,0,1,.14-1.14,7.07,7.07,0,0,1,.4-1.14L71,45.3a9.65,9.65,0,0,0-.35,1,3.64,3.64,0,0,0-.1.79,1,1,0,0,0,.22.71.69.69,0,0,0,.56.25.8.8,0,0,0,.38-.1,1,1,0,0,0,.3-.32,8.69,8.69,0,0,0,.54-1,4.17,4.17,0,0,1,1-1.48A2,2,0,0,1,74.83,44.74Z"/><path class="cls-2" d="M71.51,5.32V8.56H69.72V.12h2.46a4.2,4.2,0,0,1,2.55.63,2.22,2.22,0,0,1,.82,1.9A2.16,2.16,0,0,1,75.14,4,2.61,2.61,0,0,1,74,4.88q1.9,2.85,2.49,3.68h-2l-2-3.24Zm0-1.45h.58a2.26,2.26,0,0,0,1.25-.28,1,1,0,0,0,.41-.89.92.92,0,0,0-.42-.86,2.47,2.47,0,0,0-1.27-.25h-.55Z"/><path class="cls-2" d="M82.27,8.56H77.41V.12h4.86V1.59H79.2V3.44h2.86V4.91H79.2V7.08h3.07Z"/><path class="cls-2" d="M88.9,6.22A2.18,2.18,0,0,1,88.08,8a3.57,3.57,0,0,1-2.29.66,5.35,5.35,0,0,1-2.39-.51V6.51A9.54,9.54,0,0,0,84.85,7a4,4,0,0,0,1.08.16,1.61,1.61,0,0,0,.9-.22.79.79,0,0,0,.32-.67A.77.77,0,0,0,87,5.86a1.67,1.67,0,0,0-.41-.37,10,10,0,0,0-1.09-.57,4.93,4.93,0,0,1-1.16-.7,2.46,2.46,0,0,1-.62-.78,2.16,2.16,0,0,1-.23-1A2.17,2.17,0,0,1,84.26.64,3.11,3.11,0,0,1,86.35,0a4.73,4.73,0,0,1,1.26.16,8.84,8.84,0,0,1,1.25.43L88.28,2a7.57,7.57,0,0,0-1.11-.39,3.84,3.84,0,0,0-.87-.11,1.14,1.14,0,0,0-.78.24.76.76,0,0,0-.27.61.73.73,0,0,0,.11.42,1.21,1.21,0,0,0,.34.34,12,12,0,0,0,1.14.59,4.49,4.49,0,0,1,1.62,1.13A2.19,2.19,0,0,1,88.9,6.22Z"/><path class="cls-2" d="M93.57,8.56H91.78V1.61H89.49V.12h6.37V1.61H93.57Z"/><path class="cls-2" d="M98.8,8.56H97V.12h4.84V1.59H98.8V3.76h2.87V5.23H98.8Z"/><path class="cls-2" d="M110.29.12V5.58a3.13,3.13,0,0,1-.42,1.64,2.71,2.71,0,0,1-1.21,1.08,4.33,4.33,0,0,1-1.87.38,3.56,3.56,0,0,1-2.53-.84,2.94,2.94,0,0,1-.9-2.28V.12h1.78V5.29a2.16,2.16,0,0,0,.39,1.43,2,2,0,0,0,2.58,0,2.21,2.21,0,0,0,.39-1.44V.12Z"/><path class="cls-2" d="M112.24,8.56V.12H114v7h3.42V8.56Z"/><path class="cls-2" d="M77.92,20.68h-2l-1.14-4.43c0-.16-.12-.49-.22-1a9.62,9.62,0,0,1-.17-1c0,.21-.08.54-.18,1s-.16.79-.21,1l-1.14,4.42h-2l-2.15-8.44H70.4l1.08,4.61c.18.85.32,1.58.41,2.21,0-.22.07-.56.16-1s.16-.82.23-1.07l1.23-4.73H75.2L76.43,17c.06.21.12.53.2,1s.15.81.19,1.12c0-.3.1-.68.18-1.12s.17-.82.23-1.09l1.08-4.61h1.76Z"/><path class="cls-2" d="M85.88,20.68H81V12.24h4.87V13.7H82.8v1.86h2.86V17H82.8V19.2h3.08Z"/><path class="cls-2" d="M87.52,12.24h2.62a5.07,5.07,0,0,1,2.61.51,1.77,1.77,0,0,1,.81,1.62,2.12,2.12,0,0,1-.35,1.25,1.45,1.45,0,0,1-.95.58v.06a1.85,1.85,0,0,1,1.16.67,2.13,2.13,0,0,1,.36,1.3,2.14,2.14,0,0,1-.84,1.8,3.6,3.6,0,0,1-2.27.65H87.52Zm1.79,3.34h1a1.91,1.91,0,0,0,1.05-.22.84.84,0,0,0,.33-.75.74.74,0,0,0-.36-.69,2.27,2.27,0,0,0-1.12-.22h-.94Zm0,1.42v2.2h1.16a1.75,1.75,0,0,0,1.1-.28,1.07,1.07,0,0,0,.35-.87q0-1.05-1.5-1.05Z"/><path class="cls-2" d="M103.28,18.34a2.18,2.18,0,0,1-.82,1.8,3.57,3.57,0,0,1-2.29.66,5.35,5.35,0,0,1-2.39-.51V18.62a8.73,8.73,0,0,0,1.45.54,4.41,4.41,0,0,0,1.08.16,1.53,1.53,0,0,0,.9-.23.82.82,0,0,0,.18-1.11,1.67,1.67,0,0,0-.41-.37A10,10,0,0,0,99.89,17a5.3,5.3,0,0,1-1.16-.7,2.58,2.58,0,0,1-.62-.78,2.16,2.16,0,0,1-.23-1,2.17,2.17,0,0,1,.76-1.76,3.12,3.12,0,0,1,2.1-.64,5.16,5.16,0,0,1,1.25.15,8.94,8.94,0,0,1,1.25.44l-.58,1.39a8.67,8.67,0,0,0-1.11-.38,3.35,3.35,0,0,0-.87-.11,1.19,1.19,0,0,0-.78.23.8.8,0,0,0-.27.62.68.68,0,0,0,.11.41,1,1,0,0,0,.35.34,10.64,10.64,0,0,0,1.13.6,4.37,4.37,0,0,1,1.62,1.13A2.17,2.17,0,0,1,103.28,18.34Z"/><path class="cls-2" d="M109.56,20.68h-4.87V12.24h4.87V13.7h-3.08v1.86h2.86V17h-2.86V19.2h3.08Z"/><path class="cls-2" d="M113,17.44v3.24H111.2V12.24h2.46a4.18,4.18,0,0,1,2.54.63,2.23,2.23,0,0,1,.83,1.9,2.25,2.25,0,0,1-.41,1.32,2.68,2.68,0,0,1-1.16.91q1.91,2.85,2.48,3.68h-2l-2-3.24ZM113,16h.57a2.22,2.22,0,0,0,1.26-.28,1,1,0,0,0,.4-.89.93.93,0,0,0-.41-.85,2.5,2.5,0,0,0-1.28-.26H113Z"/><path class="cls-2" d="M123.7,12.24h1.81l-2.87,8.44h-2l-2.87-8.44h1.81l1.59,5c.09.3.18.64.27,1a8.37,8.37,0,0,1,.18.82,15.77,15.77,0,0,1,.43-1.86Z"/><path class="cls-2" d="M126.45,20.68V12.24h1.79v8.44Z"/><path class="cls-2" d="M133.84,13.61a1.82,1.82,0,0,0-1.57.76,3.51,3.51,0,0,0-.55,2.11c0,1.88.7,2.83,2.12,2.83a6.61,6.61,0,0,0,2.15-.45v1.5a6,6,0,0,1-2.32.44,3.56,3.56,0,0,1-2.82-1.12,4.76,4.76,0,0,1-1-3.21,5.24,5.24,0,0,1,.48-2.31,3.43,3.43,0,0,1,1.38-1.51,4,4,0,0,1,2.11-.53,5.8,5.8,0,0,1,2.47.59l-.58,1.46c-.32-.15-.63-.28-.95-.4A2.9,2.9,0,0,0,133.84,13.61Z"/><path class="cls-2" d="M142.53,20.68h-4.86V12.24h4.86V13.7h-3.07v1.86h2.86V17h-2.86V19.2h3.07Z"/><path class="cls-2" d="M149.15,18.34a2.18,2.18,0,0,1-.82,1.8,3.57,3.57,0,0,1-2.29.66,5.35,5.35,0,0,1-2.39-.51V18.62a8.73,8.73,0,0,0,1.45.54,4.41,4.41,0,0,0,1.08.16,1.51,1.51,0,0,0,.9-.23.82.82,0,0,0,.18-1.11,1.5,1.5,0,0,0-.41-.37,10,10,0,0,0-1.09-.57,5.55,5.55,0,0,1-1.16-.7,2.74,2.74,0,0,1-.62-.78,2.28,2.28,0,0,1-.23-1,2.17,2.17,0,0,1,.76-1.76,3.16,3.16,0,0,1,2.1-.64,5,5,0,0,1,1.25.15,8.94,8.94,0,0,1,1.25.44l-.57,1.39a8.72,8.72,0,0,0-1.12-.38,3.3,3.3,0,0,0-.87-.11,1.19,1.19,0,0,0-.78.23.8.8,0,0,0-.27.62.76.76,0,0,0,.11.41,1,1,0,0,0,.35.34,11.85,11.85,0,0,0,1.13.6,4.52,4.52,0,0,1,1.63,1.13A2.22,2.22,0,0,1,149.15,18.34Z"/><path class="cls-3" d="M95.89,105.81v3.36H94.51v-8.41h2.38a3.87,3.87,0,0,1,2.41.61,2.19,2.19,0,0,1,.79,1.84,2.31,2.31,0,0,1-1.64,2.24l2.38,3.72H99.26l-2-3.36Zm0-1.14h1a2.2,2.2,0,0,0,1.4-.36,1.31,1.31,0,0,0,.43-1.06,1.15,1.15,0,0,0-.47-1,2.53,2.53,0,0,0-1.4-.31h-.91Z"/><path class="cls-3" d="M106.81,109.17h-4.76v-8.41h4.76v1.16h-3.39v2.29h3.18v1.15h-3.18V108h3.39Z"/><path class="cls-3" d="M113.48,106.89a2.12,2.12,0,0,1-.81,1.76,3.51,3.51,0,0,1-2.24.64,5.3,5.3,0,0,1-2.34-.45v-1.3a6.4,6.4,0,0,0,1.23.43,5.36,5.36,0,0,0,1.2.16,1.9,1.9,0,0,0,1.21-.32,1,1,0,0,0,.39-.83,1,1,0,0,0-.36-.8,5.41,5.41,0,0,0-1.47-.78,3.93,3.93,0,0,1-1.63-1.06,2.28,2.28,0,0,1-.47-1.44,2,2,0,0,1,.75-1.66,3.13,3.13,0,0,1,2-.61,6,6,0,0,1,2.41.53l-.44,1.13a5.21,5.21,0,0,0-2-.48,1.51,1.51,0,0,0-1,.3.94.94,0,0,0-.34.76,1.14,1.14,0,0,0,.13.57,1.63,1.63,0,0,0,.46.44,7.92,7.92,0,0,0,1.14.54,6.5,6.5,0,0,1,1.36.72,2.12,2.12,0,0,1,.63.76A2.19,2.19,0,0,1,113.48,106.89Z"/><path class="cls-3" d="M118,109.17h-1.38v-7.23h-2.47v-1.18h6.33v1.18H118Z"/><path class="cls-3" d="M123.15,109.17h-1.36v-8.41h4.75v1.16h-3.39v2.63h3.17v1.17h-3.17Z"/><path class="cls-3" d="M134.66,100.76v5.44a3.18,3.18,0,0,1-.4,1.63,2.64,2.64,0,0,1-1.16,1.08,4,4,0,0,1-1.81.38,3.39,3.39,0,0,1-2.43-.83,3,3,0,0,1-.87-2.28v-5.42h1.38v5.32a2.14,2.14,0,0,0,.48,1.54,2,2,0,0,0,1.49.49c1.29,0,1.94-.68,1.94-2v-5.31Z"/><path class="cls-3" d="M136.81,109.17v-8.41h1.38V108h3.56v1.18Z"/><path class="cls-3" d="M154,109.17h-1.49l-1.43-5c-.06-.22-.14-.53-.23-.94s-.15-.7-.17-.87c0,.25-.1.57-.19,1s-.15.68-.21.88l-1.39,5h-1.5L146.33,105l-1.11-4.2h1.41l1.2,4.9a20.54,20.54,0,0,1,.41,2.09,11.1,11.1,0,0,1,.19-1.1c.08-.4.16-.73.23-1l1.37-4.91h1.36l1.41,4.94a19.55,19.55,0,0,1,.42,2,15.41,15.41,0,0,1,.42-2.1l1.19-4.89h1.4Z"/><path class="cls-3" d="M162.18,109.17h-4.76v-8.41h4.76v1.16H158.8v2.29H162v1.15H158.8V108h3.38Z"/><path class="cls-3" d="M164,100.76h2.5a4.7,4.7,0,0,1,2.51.5,1.77,1.77,0,0,1,.78,1.6,2,2,0,0,1-.38,1.23,1.73,1.73,0,0,1-1.1.62v.05a2.18,2.18,0,0,1,1.31.66,2,2,0,0,1,.41,1.33,2.16,2.16,0,0,1-.79,1.78,3.39,3.39,0,0,1-2.2.64h-3Zm1.38,3.47h1.32A2.27,2.27,0,0,0,168,104a1,1,0,0,0,.4-.93.93.93,0,0,0-.43-.86,2.77,2.77,0,0,0-1.36-.26h-1.19Zm0,1.12V108h1.46a2.08,2.08,0,0,0,1.3-.34,1.19,1.19,0,0,0,.44-1,1.1,1.1,0,0,0-.45-1,2.37,2.37,0,0,0-1.36-.32Z"/><path class="cls-3" d="M179.7,106.89a2.12,2.12,0,0,1-.81,1.76,3.51,3.51,0,0,1-2.24.64,5.3,5.3,0,0,1-2.34-.45v-1.3a6.17,6.17,0,0,0,1.23.43,5.36,5.36,0,0,0,1.2.16,1.9,1.9,0,0,0,1.21-.32,1,1,0,0,0,.39-.83,1,1,0,0,0-.36-.8,5.41,5.41,0,0,0-1.47-.78,3.93,3.93,0,0,1-1.63-1.06,2.28,2.28,0,0,1-.47-1.44,2,2,0,0,1,.75-1.66,3.13,3.13,0,0,1,2-.61,5.92,5.92,0,0,1,2.4.53l-.43,1.13a5.21,5.21,0,0,0-2-.48,1.5,1.5,0,0,0-1,.3,1,1,0,0,0-.35.76,1.15,1.15,0,0,0,.14.57,1.5,1.5,0,0,0,.46.44,7.92,7.92,0,0,0,1.14.54,6.5,6.5,0,0,1,1.36.72,2.23,2.23,0,0,1,.63.76A2.33,2.33,0,0,1,179.7,106.89Z"/><path class="cls-3" d="M186.09,109.17h-4.76v-8.41h4.76v1.16h-3.38v2.29h3.17v1.15h-3.17V108h3.38Z"/><path class="cls-3" d="M189.29,105.81v3.36h-1.38v-8.41h2.38a3.87,3.87,0,0,1,2.41.61,2.18,2.18,0,0,1,.78,1.84,2.3,2.3,0,0,1-1.63,2.24l2.38,3.72h-1.57l-2-3.36Zm0-1.14h1a2.2,2.2,0,0,0,1.4-.36,1.31,1.31,0,0,0,.43-1.06,1.15,1.15,0,0,0-.47-1,2.53,2.53,0,0,0-1.4-.31h-.91Z"/><path class="cls-3" d="M200.24,100.76h1.43l-2.95,8.41h-1.45l-2.93-8.41h1.41l1.76,5.23c.09.25.19.57.29,1a8.34,8.34,0,0,1,.2.88c.06-.29.13-.63.24-1a8.32,8.32,0,0,1,.25-.85Z"/><path class="cls-3" d="M202.78,109.17v-8.41h1.38v8.41Z"/><path class="cls-3" d="M210,101.81a2.24,2.24,0,0,0-1.86.85,3.54,3.54,0,0,0-.68,2.32,3.65,3.65,0,0,0,.65,2.34,2.31,2.31,0,0,0,1.89.79,5,5,0,0,0,1-.1,9.55,9.55,0,0,0,1-.28v1.18a6.3,6.3,0,0,1-2.24.38,3.6,3.6,0,0,1-2.84-1.12,4.71,4.71,0,0,1-1-3.21,5.15,5.15,0,0,1,.48-2.29,3.4,3.4,0,0,1,1.39-1.51,4.18,4.18,0,0,1,2.13-.53,5.35,5.35,0,0,1,2.39.55l-.5,1.14a7.33,7.33,0,0,0-.9-.35A3.27,3.27,0,0,0,210,101.81Z"/><path class="cls-3" d="M218.62,109.17h-4.76v-8.41h4.76v1.16h-3.39v2.29h3.17v1.15h-3.17V108h3.39Z"/><path class="cls-3" d="M225.29,106.89a2.12,2.12,0,0,1-.81,1.76,3.51,3.51,0,0,1-2.24.64,5.3,5.3,0,0,1-2.34-.45v-1.3a6.3,6.3,0,0,0,1.22.43,5.52,5.52,0,0,0,1.21.16,1.9,1.9,0,0,0,1.21-.32,1,1,0,0,0,.39-.83,1,1,0,0,0-.36-.8,5.35,5.35,0,0,0-1.48-.78,4,4,0,0,1-1.62-1.06,2.28,2.28,0,0,1-.47-1.44,2,2,0,0,1,.75-1.66,3.13,3.13,0,0,1,2-.61,6,6,0,0,1,2.4.53l-.43,1.13a5.21,5.21,0,0,0-2-.48,1.5,1.5,0,0,0-1,.3,1,1,0,0,0-.35.76,1.15,1.15,0,0,0,.14.57,1.4,1.4,0,0,0,.46.44,7.92,7.92,0,0,0,1.14.54,6.77,6.77,0,0,1,1.36.72,2,2,0,0,1,.83,1.75Z"/><path class="cls-3" d="M8.38,115.48h-2l-4.94-8H1.36l0,.44q.09,1.29.09,2.34v5.23H0v-10H2l4.94,8H7c0-.11,0-.49-.06-1.16s0-1.18,0-1.55v-5.26H8.38Z"/><path class="cls-3" d="M20,110.44a5.5,5.5,0,0,1-1.23,3.82,4.47,4.47,0,0,1-3.48,1.36,4.46,4.46,0,0,1-3.49-1.35,5.54,5.54,0,0,1-1.22-3.85,5.43,5.43,0,0,1,1.22-3.82,4.53,4.53,0,0,1,3.51-1.33,4.42,4.42,0,0,1,3.46,1.35A5.5,5.5,0,0,1,20,110.44Zm-7.68,0a4.46,4.46,0,0,0,.75,2.81,2.65,2.65,0,0,0,2.22,1,2.63,2.63,0,0,0,2.21-.94,5.71,5.71,0,0,0,0-5.64,2.63,2.63,0,0,0-2.2-.95,2.67,2.67,0,0,0-2.23.95A4.44,4.44,0,0,0,12.28,110.44Z"/><path class="cls-3" d="M30.29,110.36a5,5,0,0,1-1.38,3.8,5.54,5.54,0,0,1-4,1.32H22.12v-10h3.1A5.15,5.15,0,0,1,29,106.72,4.82,4.82,0,0,1,30.29,110.36Zm-1.73,0q0-3.61-3.38-3.61H23.76v7.3h1.17Q28.56,114.1,28.56,110.41Z"/><path class="cls-3" d="M38.14,115.48H32.45v-10h5.69v1.38h-4v2.74h3.79v1.38H34.1v3.15h4Z"/><path class="cls-3" d="M39.9,114.62a1.09,1.09,0,0,1,.26-.77,1,1,0,0,1,.76-.27,1,1,0,0,1,.76.28,1.26,1.26,0,0,1,0,1.53,1.16,1.16,0,0,1-1.52,0A1.13,1.13,0,0,1,39.9,114.62Z"/><path class="cls-3" d="M42.91,118.29a3.11,3.11,0,0,1-1.13-.18v-1.38a4.18,4.18,0,0,0,1,.15q1.35,0,1.35-1.71v-9.74h1.65v9.68a3.41,3.41,0,0,1-.74,2.36A2.73,2.73,0,0,1,42.91,118.29Z"/><path class="cls-3" d="M54.19,112.75a2.52,2.52,0,0,1-1,2.1,4.22,4.22,0,0,1-2.67.77,6.47,6.47,0,0,1-2.8-.53v-1.56a7.09,7.09,0,0,0,1.47.51,5.82,5.82,0,0,0,1.44.19,2.34,2.34,0,0,0,1.44-.37,1.21,1.21,0,0,0,.46-1,1.23,1.23,0,0,0-.43-1,6.21,6.21,0,0,0-1.76-.92,4.79,4.79,0,0,1-1.94-1.28,2.71,2.71,0,0,1-.56-1.72,2.42,2.42,0,0,1,.89-2,3.73,3.73,0,0,1,2.4-.72,7.06,7.06,0,0,1,2.88.63l-.52,1.34a6.4,6.4,0,0,0-2.4-.56,1.86,1.86,0,0,0-1.21.35,1.16,1.16,0,0,0-.41.92,1.31,1.31,0,0,0,.17.67,1.69,1.69,0,0,0,.54.52,8.65,8.65,0,0,0,1.36.66,6.84,6.84,0,0,1,1.62.86,2.38,2.38,0,0,1,.76.9A2.7,2.7,0,0,1,54.19,112.75Z"/><path class="cls-3" d="M73,42.69l-.51-1.42h-2l-.5,1.42h-.89l1.92-5.14H72l1.91,5.14Zm-.73-2.14-.48-1.39c0-.1-.08-.24-.14-.44a4,4,0,0,1-.13-.45c-.07.29-.16.6-.28.95l-.46,1.33Z"/><path class="cls-3" d="M78.83,42.69h-1l-2.52-4.08h0l0,.23c0,.43,0,.83,0,1.19v2.66h-.76V37.58h1l2.5,4.05h0c0-.06,0-.25,0-.59s0-.6,0-.79V37.58h.76Z"/><path class="cls-3" d="M82.27,39.91h1.88v2.57a5.31,5.31,0,0,1-.88.21,5.37,5.37,0,0,1-.92.07,2.29,2.29,0,0,1-1.79-.69,2.76,2.76,0,0,1-.63-1.94,2.59,2.59,0,0,1,.71-1.93,2.63,2.63,0,0,1,2-.7,3.72,3.72,0,0,1,1.52.31l-.29.7a2.85,2.85,0,0,0-1.25-.29,1.69,1.69,0,0,0-1.29.51,2,2,0,0,0-.48,1.41,2.06,2.06,0,0,0,.43,1.42,1.55,1.55,0,0,0,1.23.49,3.94,3.94,0,0,0,.87-.1V40.63H82.27Z"/><path class="cls-3" d="M89.38,37.58v3.3a2,2,0,0,1-.24,1,1.6,1.6,0,0,1-.7.66,2.48,2.48,0,0,1-1.1.23,2,2,0,0,1-1.48-.51,1.81,1.81,0,0,1-.53-1.38V37.58h.84v3.23a1.27,1.27,0,0,0,.3.93,1.19,1.19,0,0,0,.9.3c.79,0,1.18-.41,1.18-1.24V37.58Z"/><path class="cls-3" d="M90.69,42.69V37.58h.84V42h2.16v.72Z"/><path class="cls-3" d="M97.74,42.69l-.51-1.42h-2l-.5,1.42H93.9l1.91-5.14h.91l1.91,5.14ZM97,40.55l-.48-1.39c0-.1-.08-.24-.14-.44s-.11-.35-.13-.45a6.5,6.5,0,0,1-.28.95l-.46,1.33Z"/><path class="cls-3" d="M100.14,40.64v2h-.83V37.58h1.44a2.32,2.32,0,0,1,1.46.37,1.31,1.31,0,0,1,.48,1.11,1.39,1.39,0,0,1-1,1.36l1.44,2.27h-1l-1.22-2Zm0-.69h.58a1.38,1.38,0,0,0,.85-.21.81.81,0,0,0,.26-.65.69.69,0,0,0-.28-.62,1.54,1.54,0,0,0-.86-.19h-.55Z"/><path class="cls-3" d="M103.67,42.25a.53.53,0,0,1,.14-.39.49.49,0,0,1,.38-.14.53.53,0,0,1,.39.14.56.56,0,0,1,.13.39.53.53,0,0,1-.13.39.5.5,0,0,1-.39.15.46.46,0,0,1-.38-.15A.53.53,0,0,1,103.67,42.25Z"/><path class="cls-3" d="M105.2,44.11a1.86,1.86,0,0,1-.57-.08v-.71a2.2,2.2,0,0,0,.51.08q.69,0,.69-.87v-5h.83V42.5a1.74,1.74,0,0,1-.37,1.2A1.41,1.41,0,0,1,105.2,44.11Z"/><path class="cls-3" d="M110.94,41.3a1.3,1.3,0,0,1-.5,1.07,2.12,2.12,0,0,1-1.36.39,3.27,3.27,0,0,1-1.42-.27V41.7a4.74,4.74,0,0,0,.75.26,3.23,3.23,0,0,0,.73.09,1.14,1.14,0,0,0,.73-.19.6.6,0,0,0,.24-.51.61.61,0,0,0-.22-.48,3.21,3.21,0,0,0-.89-.47,2.39,2.39,0,0,1-1-.65,1.36,1.36,0,0,1-.29-.87,1.23,1.23,0,0,1,.46-1,1.85,1.85,0,0,1,1.22-.37,3.67,3.67,0,0,1,1.46.32l-.27.69a3,3,0,0,0-1.21-.29.94.94,0,0,0-.62.18.56.56,0,0,0-.21.46.62.62,0,0,0,.09.34.7.7,0,0,0,.27.27,5.82,5.82,0,0,0,.69.33,3.8,3.8,0,0,1,.83.44,1.28,1.28,0,0,1,.51,1.06Z"/><path class="cls-3" d="M175.4,81.64v2.65h-1.08V77.66h1.87a3.07,3.07,0,0,1,1.9.48,1.72,1.72,0,0,1,.62,1.45,1.81,1.81,0,0,1-1.29,1.76l1.87,2.94h-1.23l-1.59-2.65Zm0-.9h.75a1.71,1.71,0,0,0,1.1-.28,1,1,0,0,0,.34-.83.88.88,0,0,0-.37-.81,1.92,1.92,0,0,0-1.1-.25h-.72Z"/><path class="cls-3" d="M184,84.29h-3.75V77.66H184v.91h-2.66v1.81h2.5v.91h-2.5v2.08H184Z"/><path class="cls-3" d="M189.55,84.29l-.66-1.84h-2.54l-.65,1.84h-1.14L187,77.63h1.18l2.48,6.66Zm-1-2.78-.62-1.8c0-.12-.11-.31-.19-.57s-.13-.46-.16-.58a9,9,0,0,1-.36,1.22l-.6,1.73Z"/><path class="cls-3" d="M194.4,78.49a1.8,1.8,0,0,0-1.47.66,3.46,3.46,0,0,0,0,3.68,1.83,1.83,0,0,0,1.49.62,3.59,3.59,0,0,0,.81-.08c.27-.06.54-.13.83-.22v.93a4.9,4.9,0,0,1-1.77.3A2.86,2.86,0,0,1,192,83.5a3.7,3.7,0,0,1-.78-2.53,4.12,4.12,0,0,1,.38-1.81A2.79,2.79,0,0,1,192.72,78a3.38,3.38,0,0,1,1.69-.41,4.08,4.08,0,0,1,1.87.43l-.39.9a5.38,5.38,0,0,0-.7-.28A2.61,2.61,0,0,0,194.4,78.49Z"/><path class="cls-3" d="M199.75,84.29h-1.08v-5.7h-1.95v-.93h5v.93h-1.95Z"/><path class="cls-3" d="M81.16,130.32v-1.38l8.14,2.85v1.4L81.16,136v-1.37l5.06-1.7c.24-.09.55-.18.93-.28a7.1,7.1,0,0,1,.85-.19c-.28-.05-.61-.13-1-.23L86.2,132Z"/><path class="cls-3" d="M81.16,121.48h5.27a3.14,3.14,0,0,1,1.58.39,2.63,2.63,0,0,1,1,1.12,3.93,3.93,0,0,1,.36,1.75,3.32,3.32,0,0,1-.8,2.36,2.92,2.92,0,0,1-2.21.84H81.16V126.6h5.15a2.08,2.08,0,0,0,1.49-.47,1.91,1.91,0,0,0,.48-1.43q0-1.89-2-1.89H81.16Z"/><path class="cls-3" d="M89.3,114.79v4.61H81.16v-4.61h1.12v3.28H84.5V115h1.11v3.07h2.56v-3.28Z"/><path class="cls-3" d="M88.6,113.37a.86.86,0,0,1-.62-.21.85.85,0,0,1-.22-.62.79.79,0,0,1,.23-.61.85.85,0,0,1,.61-.21.89.89,0,0,1,.63.21.81.81,0,0,1,.23.61.78.78,0,0,1-.23.62A.89.89,0,0,1,88.6,113.37Z"/><path class="cls-3" d="M91.57,110.93a2.42,2.42,0,0,1-.14.91H90.31a3.31,3.31,0,0,0,.12-.81c0-.73-.46-1.09-1.38-1.09H81.16V108.6H89a2.73,2.73,0,0,1,1.91.6A2.2,2.2,0,0,1,91.57,110.93Z"/><path class="cls-3" d="M87.09,101.8a2,2,0,0,1,1.7.78,3.4,3.4,0,0,1,.62,2.17A5.12,5.12,0,0,1,89,107H87.72a5.91,5.91,0,0,0,.42-1.18,5.07,5.07,0,0,0,.15-1.17,1.86,1.86,0,0,0-.3-1.17,1,1,0,0,0-.81-.37,1,1,0,0,0-.78.34,5.31,5.31,0,0,0-.75,1.43,3.78,3.78,0,0,1-1,1.57,2.19,2.19,0,0,1-1.39.46,2,2,0,0,1-1.6-.73,3,3,0,0,1-.59-1.94,5.73,5.73,0,0,1,.51-2.33l1.09.42a5.21,5.21,0,0,0-.46,1.94,1.53,1.53,0,0,0,.28,1,1,1,0,0,0,.75.34,1,1,0,0,0,.54-.14,1.39,1.39,0,0,0,.43-.44,7.67,7.67,0,0,0,.53-1.1,5.63,5.63,0,0,1,.69-1.31,2.11,2.11,0,0,1,.73-.62A2.19,2.19,0,0,1,87.09,101.8Z"/><path class="cls-2" d="M175.06,58.15h4.24a2.47,2.47,0,0,1,1.27.31,2,2,0,0,1,.84.9,3.06,3.06,0,0,1,.3,1.41,2.65,2.65,0,0,1-.65,1.9,2.34,2.34,0,0,1-1.77.68h-4.23V62.27h4.15a1.68,1.68,0,0,0,1.2-.38,1.56,1.56,0,0,0,.38-1.15c0-1-.53-1.52-1.59-1.52h-4.14Z"/><path class="cls-2" d="M181.62,56.47h-6.56V55.4h6.56Z"/><path class="cls-2" d="M175.06,51l6.56,2.44v1L175.06,52Z"/><path class="cls-2" d="M175.06,45h4.24a2.47,2.47,0,0,1,1.27.31,2,2,0,0,1,.84.9,3.06,3.06,0,0,1,.3,1.41,2.67,2.67,0,0,1-.65,1.9,2.33,2.33,0,0,1-1.77.67h-4.23V49.07h4.15a1.68,1.68,0,0,0,1.2-.38,1.59,1.59,0,0,0,.38-1.16c0-1-.53-1.51-1.59-1.51h-4.14Z"/><path class="cls-2" d="M181.62,38.44v1.23l-2.68,1.64L181.62,43v1.15l-3.4-2.18-3.16,2v-1.2l2.48-1.51-2.48-1.52V38.6l3.18,2Z"/><path class="cls-2" d="M18.34,98.74H16.46l-4.6-7.46h0l0,.41c.06.8.09,1.52.09,2.18v4.87H10.54V89.37H12.4L17,96.8h0c0-.1,0-.46-.05-1.07s0-1.1,0-1.45V89.37h1.4Z"/><path class="cls-2" d="M29.13,94A5.14,5.14,0,0,1,28,97.6a4.12,4.12,0,0,1-3.24,1.27,4.18,4.18,0,0,1-3.26-1.26A5.15,5.15,0,0,1,20.35,94a5.08,5.08,0,0,1,1.15-3.56,4.21,4.21,0,0,1,3.26-1.25A4.13,4.13,0,0,1,28,90.49,5.1,5.1,0,0,1,29.13,94ZM22,94a4.19,4.19,0,0,0,.7,2.63,2.49,2.49,0,0,0,2.07.89,2.45,2.45,0,0,0,2.06-.88,4.24,4.24,0,0,0,.7-2.64,4.19,4.19,0,0,0-.69-2.61,2.46,2.46,0,0,0-2.06-.89,2.51,2.51,0,0,0-2.08.89A4.19,4.19,0,0,0,22,94Z"/><path class="cls-2" d="M36.55,96.2a2.37,2.37,0,0,1-.9,2,4,4,0,0,1-2.5.71,5.91,5.91,0,0,1-2.6-.49V96.93a6.83,6.83,0,0,0,1.36.47,5.53,5.53,0,0,0,1.34.17,2.16,2.16,0,0,0,1.35-.34A1.12,1.12,0,0,0,35,96.3a1.14,1.14,0,0,0-.4-.89A6.15,6.15,0,0,0,33,94.54a4.43,4.43,0,0,1-1.81-1.18,2.52,2.52,0,0,1-.52-1.6,2.26,2.26,0,0,1,.83-1.85,3.46,3.46,0,0,1,2.24-.67,6.46,6.46,0,0,1,2.68.59l-.49,1.25a5.87,5.87,0,0,0-2.23-.53,1.77,1.77,0,0,0-1.13.32,1.1,1.1,0,0,0-.38.86,1.28,1.28,0,0,0,.15.63,1.6,1.6,0,0,0,.51.49,8.77,8.77,0,0,0,1.27.6,7.12,7.12,0,0,1,1.51.81,2.18,2.18,0,0,1,.7.83A2.56,2.56,0,0,1,36.55,96.2Z"/><path class="cls-2" d="M46.68,94A5.83,5.83,0,0,1,46,96.91a3.59,3.59,0,0,1-1.89,1.65L46.38,101H44.32l-1.77-2.1H42.3A4.16,4.16,0,0,1,39,97.61,5.15,5.15,0,0,1,37.9,94,5.08,5.08,0,0,1,39,90.47a4.24,4.24,0,0,1,3.27-1.25,4.14,4.14,0,0,1,3.23,1.27A5.1,5.1,0,0,1,46.68,94Zm-7.15,0a4.19,4.19,0,0,0,.7,2.63,2.85,2.85,0,0,0,4.13,0A4.25,4.25,0,0,0,45.05,94a4.19,4.19,0,0,0-.69-2.61,2.44,2.44,0,0,0-2-.89,2.5,2.5,0,0,0-2.08.89A4.12,4.12,0,0,0,39.53,94Z"/><path class="cls-2" d="M48.69,98.74V89.37h1.53v8.06h4v1.31Z"/><path class="cls-1" d="M33.45,83.63V86h-1V80.11h1.65a2.65,2.65,0,0,1,1.67.43,1.5,1.5,0,0,1,.55,1.28,1.59,1.59,0,0,1-1.14,1.55L36.88,86H35.8l-1.4-2.33Zm0-.8h.67a1.54,1.54,0,0,0,1-.24.91.91,0,0,0,.3-.74.77.77,0,0,0-.32-.71,1.73,1.73,0,0,0-1-.22h-.63Z"/><path class="cls-1" d="M41,86H37.73V80.11H41v.81H38.69v1.59h2.2v.8h-2.2v1.84H41Z"/><path class="cls-1" d="M47.06,83a2.94,2.94,0,0,1-.8,2.22,3.24,3.24,0,0,1-2.32.76H42.31V80.11h1.8a3,3,0,0,1,2.18.76A2.82,2.82,0,0,1,47.06,83Zm-1,0c0-1.4-.65-2.1-2-2.1h-.83v4.25h.68A1.88,1.88,0,0,0,46.05,83Z"/><path class="cls-1" d="M48.32,86V80.11h1V86Z"/><path class="cls-1" d="M54.19,84.37a1.5,1.5,0,0,1-.56,1.23,2.51,2.51,0,0,1-1.56.44,3.63,3.63,0,0,1-1.62-.31v-.9a4.49,4.49,0,0,0,.85.3,3.67,3.67,0,0,0,.83.1A1.37,1.37,0,0,0,53,85a.76.76,0,0,0,0-1.14,3.68,3.68,0,0,0-1-.54,2.67,2.67,0,0,1-1.13-.74,1.56,1.56,0,0,1-.33-1A1.41,1.41,0,0,1,51,80.45a2.18,2.18,0,0,1,1.4-.42,4,4,0,0,1,1.67.37l-.3.78a3.66,3.66,0,0,0-1.39-.33,1.11,1.11,0,0,0-.71.2.67.67,0,0,0-.24.54.71.71,0,0,0,.1.39,1,1,0,0,0,.31.3,5.66,5.66,0,0,0,.8.38,4.54,4.54,0,0,1,.94.5,1.45,1.45,0,0,1,.44.53A1.59,1.59,0,0,1,54.19,84.37Z"/><path class="cls-1" d="M164.74,78.7a2.38,2.38,0,0,1,2,.84,3.66,3.66,0,0,1,.68,2.39v.85h3.07v1.34h-8.18V81.76a3.57,3.57,0,0,1,.62-2.3A2.25,2.25,0,0,1,164.74,78.7Zm1.52,4.08v-.71a2.52,2.52,0,0,0-.36-1.51,1.3,1.3,0,0,0-1.12-.48,1.26,1.26,0,0,0-1.05.43,2.11,2.11,0,0,0-.35,1.34v.93Z"/><path class="cls-1" d="M166.34,69.8a4.5,4.5,0,0,1,3.11,1,3.62,3.62,0,0,1,1.11,2.83,3.66,3.66,0,0,1-1.1,2.85,4.54,4.54,0,0,1-3.13,1,4.42,4.42,0,0,1-3.11-1,3.7,3.7,0,0,1-1.08-2.85,3.58,3.58,0,0,1,1.1-2.82A4.43,4.43,0,0,1,166.34,69.8Zm0,6.25a3.73,3.73,0,0,0,2.3-.61,2.48,2.48,0,0,0,0-3.61,3.69,3.69,0,0,0-2.3-.61,3.62,3.62,0,0,0-2.28.61,2.11,2.11,0,0,0-.78,1.79,2.18,2.18,0,0,0,.78,1.82A3.69,3.69,0,0,0,166.34,76.05Z"/><path class="cls-1" d="M168.22,63.33a2.07,2.07,0,0,1,1.72.79,3.44,3.44,0,0,1,.62,2.17,5.33,5.33,0,0,1-.43,2.28h-1.27a6,6,0,0,0,.42-1.19,5.07,5.07,0,0,0,.15-1.17,1.85,1.85,0,0,0-.31-1.18,1,1,0,0,0-.81-.37,1,1,0,0,0-.77.34,5,5,0,0,0-.76,1.43,3.79,3.79,0,0,1-1,1.58,2.18,2.18,0,0,1-1.4.46,1.93,1.93,0,0,1-1.61-.73,3,3,0,0,1-.59-1.95,5.81,5.81,0,0,1,.51-2.34l1.09.43a5.21,5.21,0,0,0-.46,1.94,1.48,1.48,0,0,0,.29,1,.93.93,0,0,0,.74.34,1,1,0,0,0,.55-.14,1.51,1.51,0,0,0,.43-.44,8.56,8.56,0,0,0,.53-1.11,5.92,5.92,0,0,1,.7-1.32,2,2,0,0,1,.73-.61A2.19,2.19,0,0,1,168.22,63.33Z"/><path class="cls-1" d="M170.45,58.92v1.34h-7v2.4h-1.14V56.51h1.14v2.41Z"/><path class="cls-1" d="M166,51.91v-3h4.11a9.37,9.37,0,0,1,.34,1.42,11.32,11.32,0,0,1,.1,1.47,3.71,3.71,0,0,1-1.1,2.87,4.45,4.45,0,0,1-3.1,1,4.19,4.19,0,0,1-3.1-1.13,4.29,4.29,0,0,1-1.11-3.13,6.1,6.1,0,0,1,.49-2.43l1.11.47a4.84,4.84,0,0,0-.46,2,2.66,2.66,0,0,0,.83,2.07,3.18,3.18,0,0,0,2.25.76,3.34,3.34,0,0,0,2.28-.68,2.5,2.5,0,0,0,.78-2,6.35,6.35,0,0,0-.17-1.39h-2.1v1.69Z"/><path class="cls-1" d="M167.18,45.6h3.27v1.34h-8.18V44.63a3.73,3.73,0,0,1,.59-2.34,2.12,2.12,0,0,1,1.79-.77,2.25,2.25,0,0,1,2.18,1.59l3.62-2.31v1.52l-3.27,2Zm-1.11,0v-.93a2.12,2.12,0,0,0-.35-1.35,1.25,1.25,0,0,0-1-.42,1.1,1.1,0,0,0-1,.45,2.53,2.53,0,0,0-.3,1.37v.88Z"/><path class="cls-1" d="M170.45,35v4.63h-8.18V35h1.13v3.29h2.22V35.2h1.12v3.08h2.57V35Z"/><path class="cls-1" d="M168.22,28.5a2.1,2.1,0,0,1,1.72.79,3.47,3.47,0,0,1,.62,2.18,5.31,5.31,0,0,1-.43,2.27h-1.27a5.78,5.78,0,0,0,.42-1.19,5.07,5.07,0,0,0,.15-1.17,1.8,1.8,0,0,0-.31-1.17,1,1,0,0,0-.81-.38,1,1,0,0,0-.77.35,5,5,0,0,0-.76,1.43,3.92,3.92,0,0,1-1,1.58,2.24,2.24,0,0,1-1.4.46,2,2,0,0,1-1.61-.73,3,3,0,0,1-.59-2,5.74,5.74,0,0,1,.51-2.34l1.09.42a5.25,5.25,0,0,0-.46,1.95,1.47,1.47,0,0,0,.29,1,.9.9,0,0,0,.74.34,1.15,1.15,0,0,0,.55-.13,1.44,1.44,0,0,0,.43-.45,7.67,7.67,0,0,0,.53-1.1,5.7,5.7,0,0,1,.7-1.32,2,2,0,0,1,.73-.62A2.19,2.19,0,0,1,168.22,28.5Z"/><path class="cls-3" d="M156.28,78.57a3.51,3.51,0,0,1,2.66,1,3.89,3.89,0,0,1,.93,2.79v2h-7V82.11a3.6,3.6,0,0,1,.9-2.61A3.41,3.41,0,0,1,156.28,78.57Zm0,1.21c-1.69,0-2.53.79-2.53,2.36v1h5.11v-.82A2.26,2.26,0,0,0,156.32,79.78Z"/><path class="cls-3" d="M156.34,70.81a3.83,3.83,0,0,1,2.67.86,3.62,3.62,0,0,1,0,4.88,3.88,3.88,0,0,1-2.69.85,3.84,3.84,0,0,1-2.68-.86,3.17,3.17,0,0,1-.93-2.45,3.09,3.09,0,0,1,.95-2.43A3.84,3.84,0,0,1,156.34,70.81Zm0,5.37a3.17,3.17,0,0,0,2-.53A1.83,1.83,0,0,0,159,74.1a1.87,1.87,0,0,0-.66-1.55,3.18,3.18,0,0,0-2-.52,3.15,3.15,0,0,0-2,.52,1.83,1.83,0,0,0-.66,1.54,1.87,1.87,0,0,0,.66,1.56A3.15,3.15,0,0,0,156.34,76.18Z"/><path class="cls-3" d="M153.71,66.3a1.9,1.9,0,0,0,.71,1.56,3.67,3.67,0,0,0,3.9,0A1.93,1.93,0,0,0,159,66.3a4,4,0,0,0-.09-.86,8,8,0,0,0-.23-.87h1a5.2,5.2,0,0,1,.31,1.87,3,3,0,0,1-.93,2.37,3.89,3.89,0,0,1-2.68.83,4.31,4.31,0,0,1-1.92-.4,2.9,2.9,0,0,1-1.26-1.16,3.44,3.44,0,0,1-.44-1.79,4.44,4.44,0,0,1,.45-2l1,.41a7.52,7.52,0,0,0-.3.76A2.83,2.83,0,0,0,153.71,66.3Z"/><path class="cls-3" d="M159.87,57.68V59l-3.19,2.21.55.68h2.64v1.15h-7V61.9h3.36c-.39-.32-.76-.63-1.11-.94l-2.25-1.9V57.75l3.08,2.64Z"/><path class="cls-3" d="M159.87,52.77v4h-7v-4h1V55.6h1.92V53h1V55.6h2.21V52.77Z"/><path class="cls-3" d="M157.05,50.1h2.82v1.15h-7v-2a3.28,3.28,0,0,1,.51-2,1.84,1.84,0,0,1,1.54-.65A1.92,1.92,0,0,1,156.75,48l3.12-2v1.31L157.05,49Zm-1,0v-.8a1.84,1.84,0,0,0-.3-1.17,1.08,1.08,0,0,0-.88-.36,1,1,0,0,0-.86.39,2.17,2.17,0,0,0-.26,1.18v.76Z"/><path class="cls-1" d="M85.49,96.84H81.62V90h3.87v1H82.74v1.86h2.58v.93H82.74v2.15h2.75Z"/><path class="cls-1" d="M92.67,96.84H91.3l-3.37-5.45h0l0,.3c0,.58.06,1.12.06,1.6v3.55H87V90h1.36l3.35,5.42h0c0-.07,0-.33,0-.78s0-.8,0-1V90h1Z"/><path class="cls-1" d="M96.84,96.84H95.72V91h-2V90h5.14v1h-2Z"/><path class="cls-1" d="M103.77,96.84H99.9V90h3.87v1H101v1.86h2.58v.93H101v2.15h2.75Z"/><path class="cls-1" d="M106.37,94.11v2.73h-1.12V90h1.93a3.21,3.21,0,0,1,2,.5,1.78,1.78,0,0,1,.63,1.49,1.86,1.86,0,0,1-1.33,1.82l1.94,3h-1.28l-1.64-2.73Zm0-.93h.78a1.72,1.72,0,0,0,1.13-.29,1.06,1.06,0,0,0,.35-.86.93.93,0,0,0-.38-.83,2.05,2.05,0,0,0-1.14-.25h-.74Z"/><path class="cls-1" d="M115.91,92.07a2,2,0,0,1-.7,1.64,3.11,3.11,0,0,1-2,.57h-.71v2.56h-1.12V90h2a3.05,3.05,0,0,1,1.92.52A1.88,1.88,0,0,1,115.91,92.07Zm-3.41,1.27h.59a2.09,2.09,0,0,0,1.26-.3,1.08,1.08,0,0,0,.41-.93,1,1,0,0,0-.36-.88,1.76,1.76,0,0,0-1.13-.29h-.77Z"/><path class="cls-1" d="M118.39,94.11v2.73h-1.11V90h1.93a3.19,3.19,0,0,1,2,.5,1.79,1.79,0,0,1,.64,1.49,1.87,1.87,0,0,1-1.33,1.82l1.93,3h-1.27l-1.64-2.73Zm0-.93h.78a1.72,1.72,0,0,0,1.13-.29,1,1,0,0,0,.35-.86.92.92,0,0,0-.37-.83,2.11,2.11,0,0,0-1.15-.25h-.74Z"/><path class="cls-1" d="M123.4,96.84V90h1.12v6.84Z"/><path class="cls-1" d="M130.27,95a1.74,1.74,0,0,1-.66,1.44,2.9,2.9,0,0,1-1.82.52,4.35,4.35,0,0,1-1.9-.36V95.52a4.71,4.71,0,0,0,1,.34,3.89,3.89,0,0,0,1,.13,1.55,1.55,0,0,0,1-.25.89.89,0,0,0,0-1.33,4.18,4.18,0,0,0-1.19-.63,3.11,3.11,0,0,1-1.32-.87,1.8,1.8,0,0,1-.39-1.17,1.64,1.64,0,0,1,.61-1.35,2.57,2.57,0,0,1,1.63-.49,4.92,4.92,0,0,1,2,.43l-.36.92a4.18,4.18,0,0,0-1.62-.39,1.25,1.25,0,0,0-.83.24.76.76,0,0,0-.28.62,1,1,0,0,0,.11.46,1.27,1.27,0,0,0,.37.36,6,6,0,0,0,.93.44,5,5,0,0,1,1.1.59,1.65,1.65,0,0,1,.52.61A1.84,1.84,0,0,1,130.27,95Z"/><path class="cls-1" d="M135.47,96.84H131.6V90h3.87v1h-2.75v1.86h2.58v.93h-2.58v2.15h2.75Z"/><path class="cls-1" d="M143.68,96.84l-.68-1.9h-2.62l-.67,1.9h-1.18L141.09,90h1.22l2.56,6.87Zm-1-2.86-.64-1.86c0-.13-.11-.33-.19-.59s-.14-.47-.17-.59a12.85,12.85,0,0,1-.37,1.26L140.71,94Z"/><path class="cls-1" d="M146.89,94.11v2.73h-1.12V90h1.94a3.19,3.19,0,0,1,2,.5,1.79,1.79,0,0,1,.64,1.49A1.87,1.87,0,0,1,149,93.81l1.93,3h-1.27L148,94.11Zm0-.93h.78a1.72,1.72,0,0,0,1.13-.29,1,1,0,0,0,.35-.86.9.9,0,0,0-.38-.83,2.05,2.05,0,0,0-1.14-.25h-.74Z"/><path class="cls-1" d="M154.81,90.86a1.84,1.84,0,0,0-1.51.68,3.56,3.56,0,0,0,0,3.8,1.85,1.85,0,0,0,1.53.64,4.8,4.8,0,0,0,.85-.08c.27-.06.55-.14.84-.23v1a4.93,4.93,0,0,1-1.82.31,3,3,0,0,1-2.31-.91,3.81,3.81,0,0,1-.81-2.61,4.12,4.12,0,0,1,.4-1.87,2.73,2.73,0,0,1,1.13-1.22,3.34,3.34,0,0,1,1.73-.43,4.35,4.35,0,0,1,1.94.44l-.4.93a5.4,5.4,0,0,0-.74-.28A2.37,2.37,0,0,0,154.81,90.86Z"/><path class="cls-1" d="M163.37,96.84h-1.12V93.76H159.1v3.08H158V90h1.12v2.8h3.15V90h1.12Z"/><path class="cls-1" d="M165.18,96.84V90h1.11v6.84Z"/><path class="cls-1" d="M170.46,96.84h-1.11V91h-2V90h5.15v1h-2Z"/><path class="cls-1" d="M177.4,96.84h-3.87V90h3.87v1h-2.76v1.86h2.58v.93h-2.58v2.15h2.76Z"/><path class="cls-1" d="M181.79,90.86a1.86,1.86,0,0,0-1.52.68,3.61,3.61,0,0,0,0,3.8,1.88,1.88,0,0,0,1.54.64,4.6,4.6,0,0,0,.84-.08c.27-.06.55-.14.85-.23v1a5,5,0,0,1-1.83.31,3,3,0,0,1-2.31-.91,3.86,3.86,0,0,1-.8-2.61,4.25,4.25,0,0,1,.39-1.87,2.79,2.79,0,0,1,1.13-1.22,3.35,3.35,0,0,1,1.74-.43,4.34,4.34,0,0,1,1.93.44l-.4.93a5.26,5.26,0,0,0-.73-.28A2.45,2.45,0,0,0,181.79,90.86Z"/><path class="cls-1" d="M187.31,96.84H186.2V91h-2V90h5.15v1h-2Z"/><path class="cls-1" d="M195.74,90v4.43a2.56,2.56,0,0,1-.33,1.32,2.11,2.11,0,0,1-.94.88,3.32,3.32,0,0,1-1.47.31,2.75,2.75,0,0,1-2-.68,2.43,2.43,0,0,1-.71-1.85V90h1.13v4.33a1.75,1.75,0,0,0,.39,1.25A1.62,1.62,0,0,0,193,96c1.05,0,1.58-.55,1.58-1.66V90Z"/><path class="cls-1" d="M198.61,94.11v2.73h-1.12V90h1.93a3.15,3.15,0,0,1,2,.5A1.76,1.76,0,0,1,202,92a1.86,1.86,0,0,1-1.33,1.82l1.93,3h-1.27l-1.64-2.73Zm0-.93h.77a1.75,1.75,0,0,0,1.14-.29,1.06,1.06,0,0,0,.35-.86.93.93,0,0,0-.38-.83,2.05,2.05,0,0,0-1.14-.25h-.74Z"/><path class="cls-1" d="M207.49,96.84h-3.87V90h3.87v1h-2.76v1.86h2.58v.93h-2.58v2.15h2.76Z"/><path class="cls-3" d="M58.82,132.44a2,2,0,0,0,.76,1.68,3.21,3.21,0,0,0,2.09.61,3.28,3.28,0,0,0,2.11-.59,2.09,2.09,0,0,0,.71-1.7,4.73,4.73,0,0,0-.09-.93c-.07-.3-.15-.62-.25-.94h1.06a5.56,5.56,0,0,1,.34,2,3.22,3.22,0,0,1-1,2.55,4.18,4.18,0,0,1-2.88.9,4.64,4.64,0,0,1-2.07-.44,3.11,3.11,0,0,1-1.36-1.25,3.82,3.82,0,0,1-.47-1.92,4.75,4.75,0,0,1,.49-2.15l1,.45a6.5,6.5,0,0,0-.32.81A3,3,0,0,0,58.82,132.44Z"/><path class="cls-3" d="M65.44,128.94H57.87V127.7h6.51v-3.21h1.06Z"/><path class="cls-3" d="M61.65,116.46a4.16,4.16,0,0,1,2.87.92,3.89,3.89,0,0,1,0,5.26,4.18,4.18,0,0,1-2.89.92,4.09,4.09,0,0,1-2.88-.93,3.9,3.9,0,0,1,0-5.25A4.17,4.17,0,0,1,61.65,116.46Zm0,5.78a3.44,3.44,0,0,0,2.12-.56,2.31,2.31,0,0,0,0-3.34,3.38,3.38,0,0,0-2.13-.57,3.44,3.44,0,0,0-2.12.56,2,2,0,0,0-.72,1.66,2,2,0,0,0,.72,1.68A3.37,3.37,0,0,0,61.65,122.24Z"/><path class="cls-3" d="M57.87,108.89h4.9a2.91,2.91,0,0,1,1.47.36,2.44,2.44,0,0,1,1,1,3.73,3.73,0,0,1,.34,1.63,3.07,3.07,0,0,1-.75,2.2,2.71,2.71,0,0,1-2,.78H57.87v-1.24h4.79a1.93,1.93,0,0,0,1.39-.44,1.83,1.83,0,0,0,.44-1.34c0-1.16-.61-1.75-1.84-1.75H57.87Z"/><path class="cls-3" d="M61.58,100.79a3.75,3.75,0,0,1,2.87,1,4.17,4.17,0,0,1,1,3V107H57.87v-2.35a3.87,3.87,0,0,1,1-2.81A3.65,3.65,0,0,1,61.58,100.79Zm.05,1.31c-1.82,0-2.72.85-2.72,2.54v1.08H64.4v-.88A2.43,2.43,0,0,0,61.63,102.1Z"/><path class="cls-3" d="M65.44,91.71l-2.1.76v2.89l2.1.74v1.31l-7.6-2.83V93.23l7.6-2.84Zm-3.17,1.08-2.06.71a6.65,6.65,0,0,1-.65.22l-.65.19a11.48,11.48,0,0,1,1.39.41l2,.68Z"/><path class="cls-3" d="M60.16,84.38a2.21,2.21,0,0,1,1.82.78,3.4,3.4,0,0,1,.63,2.21v.79h2.83v1.23H57.87V87.21a3.27,3.27,0,0,1,.58-2.12A2.07,2.07,0,0,1,60.16,84.38Zm1.41,3.78V87.5a2.37,2.37,0,0,0-.33-1.4,1.21,1.21,0,0,0-1-.45,1.19,1.19,0,0,0-1,.4,2,2,0,0,0-.32,1.25v.86Z"/><path class="cls-3" d="M60.16,77.85a2.21,2.21,0,0,1,1.82.78,3.4,3.4,0,0,1,.63,2.21v.79h2.83v1.24H57.87V80.68a3.27,3.27,0,0,1,.58-2.12A2.07,2.07,0,0,1,60.16,77.85Zm1.41,3.78V81a2.37,2.37,0,0,0-.33-1.4,1.21,1.21,0,0,0-1-.45,1.19,1.19,0,0,0-1,.4,2,2,0,0,0-.32,1.25v.86Z"/><path class="cls-3" d="M65.44,76.34H57.87V75.1h6.51V71.89h1.06Z"/><path class="cls-3" d="M65.44,70.58H57.87V69.35h7.57Z"/><path class="cls-3" d="M58.82,64.12a2,2,0,0,0,.76,1.68,4,4,0,0,0,4.2,0,2.09,2.09,0,0,0,.71-1.7,4.73,4.73,0,0,0-.09-.93c-.07-.3-.15-.61-.25-.94h1.06a5.6,5.6,0,0,1,.34,2,3.26,3.26,0,0,1-1,2.56,4.22,4.22,0,0,1-2.88.89,4.78,4.78,0,0,1-2.07-.43A3.13,3.13,0,0,1,58.23,66a3.79,3.79,0,0,1-.47-1.92A4.67,4.67,0,0,1,58.25,62l1,.44a7.18,7.18,0,0,0-.32.81A3,3,0,0,0,58.82,64.12Z"/><path class="cls-3" d="M65.44,55.92l-2.1.76v2.89l2.1.74v1.31l-7.6-2.83V57.44l7.6-2.84ZM62.27,57l-2.06.71c-.14,0-.35.13-.65.22l-.65.19a11.48,11.48,0,0,1,1.39.41l2,.68Z"/><path class="cls-3" d="M65.44,51v1.24H58.93v2.22H57.87V48.76h1.06V51Z"/><path class="cls-3" d="M65.44,47.6H57.87V46.36h7.57Z"/><path class="cls-3" d="M61.65,37.63a4.11,4.11,0,0,1,2.87.93,3.32,3.32,0,0,1,1,2.62,3.35,3.35,0,0,1-1,2.63,5,5,0,0,1-5.77,0,3.39,3.39,0,0,1-1-2.64,3.32,3.32,0,0,1,1-2.61A4.12,4.12,0,0,1,61.65,37.63Zm0,5.79a3.37,3.37,0,0,0,2.12-.57,2,2,0,0,0,.72-1.67,2,2,0,0,0-.71-1.67A3.45,3.45,0,0,0,61.65,39a3.37,3.37,0,0,0-2.12.56,2,2,0,0,0-.72,1.66,2,2,0,0,0,.72,1.68A3.37,3.37,0,0,0,61.65,43.42Z"/><path class="cls-3" d="M65.44,29.69v1.52l-6,3.73v0l.33,0c.65,0,1.23-.07,1.77-.07h3.93V36H57.87V34.5l6-3.71v0l-.86,0-1.17,0h-4V29.69Z"/><path class="cls-3" d="M63.39,23.33a1.89,1.89,0,0,1,1.58.73,3.12,3.12,0,0,1,.58,2,4.78,4.78,0,0,1-.4,2.11H64a6,6,0,0,0,.38-1.1A4.86,4.86,0,0,0,64.5,26a1.73,1.73,0,0,0-.28-1.09.92.92,0,0,0-.75-.35.94.94,0,0,0-.72.33,4.64,4.64,0,0,0-.7,1.32,3.48,3.48,0,0,1-1,1.46,2,2,0,0,1-1.29.43,1.83,1.83,0,0,1-1.5-.68,2.78,2.78,0,0,1-.54-1.8,5.29,5.29,0,0,1,.48-2.17l1,.39a4.67,4.67,0,0,0-.43,1.81,1.41,1.41,0,0,0,.26.91.87.87,0,0,0,.7.31,1,1,0,0,0,.5-.12,1.43,1.43,0,0,0,.4-.41,7.36,7.36,0,0,0,.49-1,5.45,5.45,0,0,1,.65-1.22,1.82,1.82,0,0,1,.68-.57A2,2,0,0,1,63.39,23.33Z"/><path class="cls-3" d="M70.76,35.39a2.53,2.53,0,0,1-.93-.14V34.11a3.52,3.52,0,0,0,.83.12c.74,0,1.11-.47,1.11-1.4v-8h1.36v8a2.82,2.82,0,0,1-.6,1.94A2.26,2.26,0,0,1,70.76,35.39Z"/><path class="cls-3" d="M80.42,33.08l-.83-2.3H76.42l-.81,2.3H74.19l3.1-8.32h1.47l3.1,8.32Zm-1.19-3.47-.77-2.25q-.09-.22-.24-.72c-.1-.32-.17-.56-.2-.71a13.76,13.76,0,0,1-.45,1.52l-.75,2.16Z"/><path class="cls-3" d="M87.67,24.8h1.41l-2.9,8.28H84.75L81.86,24.8h1.39L85,30a9.5,9.5,0,0,1,.29.95c.1.38.17.67.2.86a9.12,9.12,0,0,1,.23-1c.1-.37.18-.65.25-.84Z"/><path class="cls-3" d="M95.31,33.08l-.82-2.3H91.32l-.81,2.3H89.08l3.1-8.32h1.47l3.1,8.32Zm-1.18-3.47-.78-2.25c0-.15-.13-.39-.23-.72s-.17-.56-.21-.71a11.89,11.89,0,0,1-.45,1.52l-.74,2.16Z"/><path class="cls-3" d="M106.35,27.3a2.4,2.4,0,0,1-.85,2,3.75,3.75,0,0,1-2.42.69h-.86v3.1h-1.36V24.8h2.39a3.66,3.66,0,0,1,2.33.63A2.29,2.29,0,0,1,106.35,27.3Zm-4.13,1.54h.72a2.62,2.62,0,0,0,1.53-.36,1.32,1.32,0,0,0,.48-1.13,1.3,1.3,0,0,0-.43-1.07,2.19,2.19,0,0,0-1.36-.35h-.94Z"/><path class="cls-3" d="M108,33.08V24.8h1.36v7.12h3.51v1.16Z"/><path class="cls-3" d="M119.44,33.08l-.83-2.3h-3.17l-.81,2.3H113.2l3.1-8.32h1.47l3.1,8.32Zm-1.19-3.47-.78-2.25c0-.15-.13-.39-.23-.72s-.17-.56-.21-.71a11.89,11.89,0,0,1-.45,1.52l-.74,2.16Z"/><path class="cls-3" d="M124.83,33.08h-1.35V26H121V24.8h6.23V26h-2.44Z"/><path class="cls-3" d="M129.88,33.08h-1.34V24.8h4.67v1.14h-3.33v2.59H133v1.15h-3.12Z"/><path class="cls-3" d="M142.07,28.93a4.54,4.54,0,0,1-1,3.14,3.65,3.65,0,0,1-2.86,1.13,3.7,3.7,0,0,1-2.89-1.12,4.56,4.56,0,0,1-1-3.16,4.5,4.5,0,0,1,1-3.16,3.73,3.73,0,0,1,2.89-1.09,3.65,3.65,0,0,1,2.85,1.11A4.52,4.52,0,0,1,142.07,28.93Zm-6.32,0a3.73,3.73,0,0,0,.61,2.32,2.53,2.53,0,0,0,3.66,0,3.72,3.72,0,0,0,.61-2.33,3.68,3.68,0,0,0-.61-2.31,2.13,2.13,0,0,0-1.81-.79,2.17,2.17,0,0,0-1.84.79A3.62,3.62,0,0,0,135.75,28.93Z"/><path class="cls-3" d="M145.21,29.77v3.31h-1.36V24.8h2.34a3.88,3.88,0,0,1,2.38.6,2.16,2.16,0,0,1,.77,1.81,2.26,2.26,0,0,1-1.61,2.2l2.34,3.67h-1.54l-2-3.31Zm0-1.12h.94a2.19,2.19,0,0,0,1.37-.35,1.29,1.29,0,0,0,.42-1,1.11,1.11,0,0,0-.46-1,2.43,2.43,0,0,0-1.38-.31h-.89Z"/><path class="cls-3" d="M154.85,33.08l-2.4-6.92h0c.07,1,.1,2,.1,2.89v4h-1.23V24.8h1.91l2.3,6.59h0l2.36-6.59h1.92v8.28h-1.3V29c0-.41,0-.94,0-1.61s0-1.06.05-1.2h0l-2.49,6.91Z"/><path class="cls-2" d="M117.15,42a1.25,1.25,0,0,1-.48,1,2.09,2.09,0,0,1-1.32.38,3.08,3.08,0,0,1-1.38-.27v-.76a3.81,3.81,0,0,0,.72.25,3.07,3.07,0,0,0,.71.09,1.14,1.14,0,0,0,.71-.18.64.64,0,0,0,0-1,3.22,3.22,0,0,0-.87-.46,2.38,2.38,0,0,1-1-.62,1.37,1.37,0,0,1-.27-.85,1.17,1.17,0,0,1,.44-1,1.81,1.81,0,0,1,1.18-.36,3.6,3.6,0,0,1,1.42.31l-.26.67a3,3,0,0,0-1.18-.28,1,1,0,0,0-.6.17.56.56,0,0,0-.2.45.67.67,0,0,0,.08.33.84.84,0,0,0,.27.26,4.11,4.11,0,0,0,.67.33,3.54,3.54,0,0,1,.8.42,1.24,1.24,0,0,1,.38.45A1.31,1.31,0,0,1,117.15,42Z"/><path class="cls-2" d="M121.39,39.86a1.47,1.47,0,0,1-.51,1.2,2.28,2.28,0,0,1-1.45.41h-.51v1.86h-.81v-5h1.43a2.17,2.17,0,0,1,1.39.38A1.37,1.37,0,0,1,121.39,39.86Zm-2.47.93h.43a1.52,1.52,0,0,0,.92-.22.93.93,0,0,0,0-1.32,1.32,1.32,0,0,0-.82-.21h-.56Z"/><path class="cls-2" d="M123.2,41.34v2h-.82v-5h1.41a2.3,2.3,0,0,1,1.42.36,1.3,1.3,0,0,1,.46,1.09,1.35,1.35,0,0,1-1,1.32l1.4,2.2h-.92l-1.19-2Zm0-.67h.56a1.28,1.28,0,0,0,.82-.21.76.76,0,0,0,.26-.62.69.69,0,0,0-.28-.61,1.53,1.53,0,0,0-.83-.18h-.53Z"/><path class="cls-2" d="M126.83,43.33v-5h.81v5Z"/><path class="cls-2" d="M133.09,43.33h-1l-2.44-4h0l0,.22c0,.42.05.81.05,1.16v2.58H129v-5h1l2.43,3.94h0s0-.24,0-.57,0-.58,0-.77v-2.6h.75Z"/><path class="cls-2" d="M136.43,40.63h1.82v2.5a5.89,5.89,0,0,1-.86.2,6.06,6.06,0,0,1-.89.07,2.27,2.27,0,0,1-1.74-.67,2.72,2.72,0,0,1-.61-1.88,2.51,2.51,0,0,1,.69-1.88,2.6,2.6,0,0,1,1.9-.68,3.65,3.65,0,0,1,1.47.3l-.28.68a2.84,2.84,0,0,0-1.21-.28,1.61,1.61,0,0,0-1.26.5,1.9,1.9,0,0,0-.46,1.36,2,2,0,0,0,.42,1.39,1.5,1.5,0,0,0,1.19.47,3.71,3.71,0,0,0,.85-.1V41.33h-1Z"/><path class="cls-2" d="M141.25,38.36h1.47a2.82,2.82,0,0,1,1.49.3,1.06,1.06,0,0,1,.45,1,1.12,1.12,0,0,1-.22.72,1,1,0,0,1-.65.36v0a1.21,1.21,0,0,1,.77.39,1.13,1.13,0,0,1,.25.78,1.28,1.28,0,0,1-.47,1.05,2,2,0,0,1-1.3.38h-1.79Zm.81,2h.78a1.35,1.35,0,0,0,.75-.16.62.62,0,0,0,.23-.55.53.53,0,0,0-.25-.5,1.52,1.52,0,0,0-.8-.16h-.71Zm0,.66v1.57h.86a1.27,1.27,0,0,0,.77-.19.71.71,0,0,0,.26-.62.64.64,0,0,0-.26-.57,1.47,1.47,0,0,0-.81-.19Z"/><path class="cls-2" d="M150.25,40.84a2.68,2.68,0,0,1-.61,1.88,2.17,2.17,0,0,1-1.71.68,2.23,2.23,0,0,1-1.73-.67,2.76,2.76,0,0,1-.6-1.9,2.71,2.71,0,0,1,.6-1.89,2.23,2.23,0,0,1,1.73-.65,2.19,2.19,0,0,1,1.71.66A2.7,2.7,0,0,1,150.25,40.84Zm-3.79,0a2.21,2.21,0,0,0,.37,1.39,1.32,1.32,0,0,0,1.1.47,1.29,1.29,0,0,0,1.09-.47,2.24,2.24,0,0,0,.37-1.39,2.28,2.28,0,0,0-.37-1.39,1.3,1.3,0,0,0-1.09-.47,1.34,1.34,0,0,0-1.1.47A2.21,2.21,0,0,0,146.46,40.84Z"/><path class="cls-2" d="M155.72,40.84a2.72,2.72,0,0,1-.6,1.88,2.54,2.54,0,0,1-3.45,0,2.76,2.76,0,0,1-.6-1.9,2.67,2.67,0,0,1,.61-1.89,2.59,2.59,0,0,1,3.44,0A2.75,2.75,0,0,1,155.72,40.84Zm-3.79,0a2.28,2.28,0,0,0,.37,1.39,1.32,1.32,0,0,0,1.1.47,1.28,1.28,0,0,0,1.09-.47,2.18,2.18,0,0,0,.37-1.39,2.21,2.21,0,0,0-.37-1.39,1.28,1.28,0,0,0-1.08-.47,1.34,1.34,0,0,0-1.11.47A2.28,2.28,0,0,0,151.93,40.84Z"/><path class="cls-2" d="M158.5,43.33h-.81V39.06h-1.46v-.7H160v.7H158.5Z"/><path class="cls-3" d="M88.51,66.59a19.76,19.76,0,0,1,16.36-19.46h-23V86.06h23A19.76,19.76,0,0,1,88.51,66.59Z"/><path class="cls-3" d="M129.73,66.59h0a4.84,4.84,0,0,0,0-.53l16.7-18.93H130.22l-9.07,10.29-2.54,2.88h-8.34A6.29,6.29,0,0,0,104,66.59h0a6.28,6.28,0,0,0,6.29,6.29h8.34l2.54,2.89,9.07,10.29H146.4L129.7,67.12A4.58,4.58,0,0,0,129.73,66.59Z"/></g></g></svg>